<?xml version="1.0" standalone="no"?>
<!DOCTYPE svg PUBLIC "-//W3C//DTD SVG 20010904//EN"
 "http://www.w3.org/TR/2001/REC-SVG-20010904/DTD/svg10.dtd">
<svg version="1.0" xmlns="http://www.w3.org/2000/svg"
 width="1366.000000pt" height="620.000000pt" viewBox="0 0 1366.000000 620.000000"
 preserveAspectRatio="xMidYMid meet">

<g transform="translate(0.000000,620.000000) scale(0.100000,-0.100000)"
fill="#000000" stroke="none">
<path d="M0 6190 c0 -7 2283 -10 6830 -10 4547 0 6830 3 6830 10 0 7 -2283 10
-6830 10 -4547 0 -6830 -3 -6830 -10z"/>
<path d="M11430 5836 c0 -8 -8 -17 -18 -21 -25 -7 -42 -47 -42 -93 0 -21 -5
-43 -12 -50 -9 -9 9 -12 82 -12 73 0 91 3 82 12 -7 7 -12 29 -12 50 0 46 -17
86 -42 93 -10 4 -18 13 -18 21 0 8 -4 14 -10 14 -5 0 -10 -6 -10 -14z m42 -43
c13 -11 18 -30 18 -65 l0 -48 -50 0 -50 0 0 47 c0 71 40 104 82 66z"/>
<path d="M3388 5824 c-5 -4 -8 -43 -8 -86 l0 -78 45 0 c60 0 85 25 85 83 0 24
-6 51 -13 61 -14 19 -96 34 -109 20z m92 -33 c14 -27 13 -84 -2 -99 -7 -7 -27
-12 -45 -12 l-33 0 0 65 0 65 35 0 c24 0 37 -6 45 -19z"/>
<path d="M3567 5763 c-14 -38 -28 -76 -32 -85 -4 -10 -3 -18 3 -18 6 0 14 9
17 20 5 16 15 20 50 20 34 0 44 -4 48 -20 3 -11 10 -20 16 -20 6 0 0 28 -15
68 -14 37 -28 75 -31 85 -10 34 -31 16 -56 -50z m58 -6 l15 -37 -35 0 c-23 0
-33 4 -30 13 28 80 27 79 50 24z"/>
<path d="M3718 5819 c-10 -5 -18 -21 -18 -35 0 -21 9 -29 50 -46 35 -14 50
-26 48 -37 -4 -23 -68 -28 -80 -7 -5 9 -14 14 -19 10 -19 -11 23 -44 56 -44
36 0 71 31 61 55 -3 8 -26 24 -52 35 -33 14 -45 25 -42 37 4 24 45 28 69 7 17
-15 19 -15 19 -1 0 31 -57 47 -92 26z"/>
<path d="M3858 5824 c-11 -11 -10 -164 1 -164 6 0 11 17 13 38 3 36 4 37 46
40 l42 3 0 -40 c0 -23 5 -41 10 -41 6 0 10 35 10 85 0 50 -4 85 -10 85 -5 0
-10 -18 -10 -41 l0 -40 -42 3 c-42 3 -43 4 -48 41 -3 22 -8 35 -12 31z"/>
<path d="M4030 5745 l0 -85 44 0 c62 0 99 43 65 77 -8 8 -8 17 0 32 17 31 -17
61 -69 61 l-40 0 0 -85z m87 54 c20 -20 3 -39 -33 -39 -30 0 -34 3 -34 25 0
21 5 25 28 25 15 0 33 -5 39 -11z m3 -74 c20 -24 4 -45 -35 -45 -32 0 -35 2
-35 30 0 26 3 30 29 30 16 0 34 -7 41 -15z"/>
<path d="M4200 5810 c-14 -14 -20 -33 -20 -63 0 -58 22 -87 65 -87 43 0 65 29
65 87 0 50 -26 83 -65 83 -14 0 -34 -9 -45 -20z m78 -12 c16 -16 16 -90 0
-106 -7 -7 -21 -12 -33 -12 -32 0 -45 19 -45 65 0 46 13 65 45 65 12 0 26 -5
33 -12z"/>
<path d="M4384 5813 c-4 -10 -18 -45 -30 -77 -13 -33 -24 -63 -24 -68 0 -16
18 -7 23 12 8 30 79 28 100 -2 24 -35 20 -3 -11 76 -28 72 -47 91 -58 59z m46
-84 c0 -5 -13 -9 -30 -9 -35 0 -35 -1 -14 48 l15 37 15 -34 c8 -18 14 -37 14
-42z"/>
<path d="M4510 5745 c0 -50 4 -85 10 -85 6 0 10 16 10 35 0 29 4 35 20 35 13
0 28 -13 41 -35 12 -19 25 -35 31 -35 5 0 1 15 -9 33 -19 32 -19 33 -1 58 32
43 -1 79 -73 79 l-29 0 0 -85z m89 51 c19 -23 2 -46 -35 -46 -31 0 -34 3 -34
30 0 26 3 30 29 30 16 0 34 -6 40 -14z"/>
<path d="M4668 5824 c-5 -4 -8 -43 -8 -86 l0 -78 45 0 c60 0 85 25 85 83 0 24
-6 51 -13 61 -14 19 -96 34 -109 20z m92 -33 c14 -27 13 -84 -2 -99 -7 -7 -27
-12 -45 -12 l-33 0 0 65 0 65 35 0 c24 0 37 -6 45 -19z"/>
<path d="M11883 5745 c0 -33 2 -48 4 -32 4 22 9 27 33 27 24 0 29 -5 33 -27 2
-16 4 -1 4 32 0 33 -2 48 -4 33 -4 -23 -9 -28 -33 -28 -24 0 -29 5 -33 28 -2
15 -4 0 -4 -33z"/>
<path d="M12117 5751 c-19 -54 -22 -75 -6 -48 5 9 21 17 34 17 13 0 29 -8 35
-17 9 -15 10 -14 4 7 -11 44 -33 90 -41 90 -5 0 -16 -22 -26 -49z m37 -19
c-25 -6 -32 2 -22 28 l9 25 14 -25 c12 -21 12 -25 -1 -28z"/>
<path d="M12270 5786 c0 -9 -12 -16 -27 -18 -25 -3 -28 -7 -28 -38 0 -33 2
-35 33 -36 l32 -1 0 54 c0 29 -2 53 -5 53 -3 0 -5 -6 -5 -14z m-6 -41 c8 -22
-4 -46 -23 -43 -9 2 -17 15 -19 31 -3 21 1 27 16 27 11 0 22 -7 26 -15z"/>
<path d="M12580 5760 c0 -22 5 -40 10 -40 6 0 10 18 10 40 0 22 -4 40 -10 40
-5 0 -10 -18 -10 -40z"/>
<path d="M11993 5730 c0 -25 2 -35 4 -22 2 12 2 32 0 45 -2 12 -4 2 -4 -23z"/>
<path d="M12312 5727 l1 -42 4 38 c3 28 9 37 23 37 14 0 20 -9 23 -37 l4 -38
1 38 c2 29 6 37 21 37 15 0 21 -8 24 -35 l4 -35 -1 37 -1 38 -52 2 -53 3 2
-43z"/>
<path d="M12453 5730 c0 -25 2 -35 4 -22 2 12 2 32 0 45 -2 12 -4 2 -4 -23z"/>
<path d="M12492 5728 l1 -43 4 38 c4 33 7 38 26 35 16 -2 24 -12 28 -38 5 -29
7 -31 8 -8 2 43 -9 58 -40 58 -28 0 -29 -2 -27 -42z"/>
<path d="M12031 5694 c0 -11 3 -14 6 -6 3 7 2 16 -1 19 -3 4 -6 -2 -5 -13z"/>
<path d="M11428 5633 c6 -2 18 -2 25 0 6 3 1 5 -13 5 -14 0 -19 -2 -12 -5z"/>
<path d="M1552 5594 c-51 -35 -13 -134 52 -134 61 0 106 -49 106 -115 0 -33
36 -65 74 -65 43 0 66 26 77 87 12 60 34 83 90 90 56 7 89 36 89 78 0 63 -84
100 -125 55 -9 -10 -21 -41 -26 -67 -12 -64 -44 -93 -105 -93 -60 0 -104 40
-104 95 0 68 -73 108 -128 69z"/>
<path d="M1635 5199 c-10 -15 1 -23 20 -15 9 3 13 10 10 16 -8 13 -22 13 -30
-1z"/>
<path d="M1420 5130 c0 -56 3 -70 15 -70 9 0 15 9 15 21 0 21 0 21 19 -2 16
-19 22 -21 32 -12 10 10 9 16 -4 31 -16 17 -16 20 -2 32 8 7 15 16 15 21 0 14
-22 10 -42 -8 -17 -15 -18 -14 -18 20 0 26 -4 37 -15 37 -12 0 -15 -14 -15
-70z"/>
<path d="M1168 5184 c-7 -6 20 -93 35 -111 17 -23 38 -14 53 23 25 59 29 94
11 94 -10 0 -21 -17 -29 -47 l-14 -48 -15 44 c-15 43 -28 58 -41 45z"/>
<path d="M1867 5183 c-9 -8 -9 -86 -1 -107 3 -9 12 -16 20 -16 11 0 14 16 14
65 0 48 -4 65 -13 65 -8 0 -17 -3 -20 -7z"/>
<path d="M1932 5128 c3 -62 3 -63 34 -66 44 -4 77 26 76 69 -1 41 -23 59 -74
59 l-39 0 3 -62z m76 -6 c-2 -19 -10 -28 -25 -30 -20 -3 -23 1 -23 31 0 41 7
49 32 36 13 -7 18 -19 16 -37z"/>
<path d="M1318 5163 c-29 -7 -21 -21 15 -26 l32 -3 -32 -8 c-42 -11 -47 -52
-9 -62 46 -11 66 3 66 47 0 33 -4 41 -26 49 -14 6 -26 9 -27 9 -1 -1 -10 -3
-19 -6z m42 -61 c0 -13 -12 -22 -22 -16 -10 6 -1 24 13 24 5 0 9 -4 9 -8z"/>
<path d="M1548 5163 c-29 -7 -23 -50 7 -57 14 -4 23 -11 20 -17 -4 -5 -16 -7
-27 -3 -15 4 -19 2 -16 -7 6 -19 45 -24 64 -9 22 19 17 38 -13 54 l-28 15 29
1 c24 0 27 2 16 15 -13 15 -21 16 -52 8z"/>
<path d="M1712 5159 c-20 -7 -23 -15 -20 -51 4 -56 28 -64 28 -9 0 30 4 41 15
41 9 0 15 -9 15 -24 0 -35 10 -56 26 -56 15 0 20 66 6 86 -11 17 -44 24 -70
13z"/>
<path d="M1632 5113 c2 -35 7 -48 18 -48 24 0 21 89 -3 93 -16 3 -18 -3 -15
-45z"/>
<path d="M3460 5059 c0 -44 4 -68 10 -64 6 3 10 17 10 31 0 36 34 32 50 -6 7
-16 16 -30 21 -30 5 0 3 13 -5 29 -14 26 -14 30 -1 41 37 30 6 70 -54 70 l-31
0 0 -71z m58 55 c34 -10 26 -48 -10 -52 -25 -3 -28 0 -28 27 0 33 2 34 38 25z"/>
<path d="M3596 5114 c-22 -21 -5 -50 34 -59 36 -8 46 -21 30 -40 -16 -19 -35
-19 -55 1 -20 20 -33 11 -15 -11 14 -16 57 -20 78 -6 26 16 9 53 -28 66 -19 6
-36 19 -38 27 -4 23 28 31 54 13 25 -16 33 -8 12 13 -17 17 -54 15 -72 -4z"/>
<path d="M3710 5082 c0 -56 21 -92 55 -92 39 0 55 25 55 86 0 30 -4 54 -10 54
-5 0 -10 -24 -10 -54 0 -60 -19 -88 -48 -69 -12 7 -18 27 -20 67 -4 68 -22 75
-22 8z"/>
<path d="M3907 5123 c-11 -10 -8 -121 3 -128 6 -4 10 7 10 24 0 29 3 31 35 31
44 0 61 27 39 58 -15 21 -72 31 -87 15z m68 -17 c27 -19 13 -46 -25 -46 -27 0
-30 3 -30 30 0 34 22 40 55 16z"/>
<path d="M4030 5060 c0 -40 4 -70 10 -70 6 0 10 14 10 32 l0 32 33 -32 c47
-45 59 -40 14 6 l-37 38 30 29 c16 16 28 31 25 34 -3 2 -19 -8 -35 -24 l-30
-29 0 27 c0 15 -4 27 -10 27 -6 0 -10 -30 -10 -70z"/>
<path d="M4150 5076 c0 -61 16 -86 55 -86 13 0 31 10 39 22 18 25 22 118 6
118 -5 0 -10 -24 -10 -54 0 -60 -19 -88 -48 -69 -12 7 -18 27 -20 67 -4 72
-22 74 -22 2z"/>
<path d="M4340 5060 c0 -40 4 -70 10 -70 6 0 10 24 11 53 l0 52 16 -32 c9 -18
20 -33 25 -33 4 0 15 15 25 33 l18 32 6 -55 6 -55 1 73 c1 39 0 72 -3 72 -2 0
-14 -18 -25 -40 -11 -22 -22 -40 -25 -40 -2 0 -14 18 -26 40 -13 22 -26 40
-31 40 -4 0 -8 -31 -8 -70z"/>
<path d="M4620 5060 c0 -76 17 -97 22 -27 2 35 7 43 26 45 20 3 22 -1 22 -42
0 -25 5 -46 10 -46 11 0 14 59 4 84 -4 10 -18 16 -35 16 -22 0 -29 5 -29 20 0
11 -4 20 -10 20 -6 0 -10 -30 -10 -70z"/>
<path d="M5390 5107 c0 -20 -4 -23 -30 -19 -24 3 -32 0 -41 -22 -9 -20 -9 -32
-1 -51 10 -21 18 -25 47 -23 l35 3 0 68 c0 37 -2 67 -5 67 -3 0 -5 -10 -5 -23z
m-4 -53 c8 -30 -16 -60 -40 -51 -16 6 -23 57 -9 70 16 16 43 6 49 -19z"/>
<path d="M5700 5060 c0 -76 17 -97 22 -27 2 35 7 43 25 45 23 3 25 -2 37 -68
2 -14 3 -2 2 25 -1 49 -1 50 -33 50 -28 0 -33 4 -33 22 0 13 -4 23 -10 23 -6
0 -10 -30 -10 -70z"/>
<path d="M5874 5116 c-3 -7 -4 -38 -2 -67 l3 -54 36 -3 c24 -2 42 3 53 13 21
21 21 89 0 109 -19 20 -83 21 -90 2z m81 -56 c0 -43 -1 -45 -32 -48 l-33 -3 0
51 0 51 33 -3 c31 -3 32 -5 32 -48z"/>
<path d="M6120 5060 c0 -40 4 -70 10 -70 6 0 10 30 10 70 0 40 -4 70 -10 70
-6 0 -10 -30 -10 -70z"/>
<path d="M1810 5080 c0 -11 7 -20 15 -20 8 0 15 9 15 20 0 11 -7 20 -15 20 -8
0 -15 -9 -15 -20z"/>
<path d="M4504 5045 l1 -50 38 -1 37 -1 -2 51 c-1 42 -2 45 -5 14 -5 -44 -26
-66 -47 -48 -8 6 -17 28 -19 48 -3 25 -4 21 -3 -13z"/>
<path d="M4745 5081 c-4 -7 5 -9 25 -5 23 5 30 3 30 -10 0 -9 -8 -16 -18 -16
-10 0 -27 -6 -37 -14 -28 -20 -4 -46 41 -44 l35 1 -3 46 c-3 44 -5 46 -35 49
-17 2 -34 -2 -38 -7z m55 -56 c0 -9 -7 -18 -16 -22 -18 -7 -39 11 -30 26 11
17 46 13 46 -4z"/>
<path d="M4850 5039 c0 -31 4 -48 10 -44 6 3 10 24 10 46 0 32 4 39 19 39 21
0 30 -17 33 -63 1 -25 2 -23 7 13 5 36 10 45 26 45 16 0 21 -8 23 -43 3 -44
22 -49 22 -6 0 51 -14 61 -85 62 l-65 1 0 -50z"/>
<path d="M5030 5039 c0 -31 4 -48 10 -44 6 3 10 24 10 46 0 32 4 39 19 39 21
0 30 -17 33 -63 1 -25 2 -23 7 13 5 36 10 45 26 45 16 0 21 -8 23 -43 3 -44
22 -49 22 -6 0 51 -14 61 -85 62 l-65 1 0 -50z"/>
<path d="M5216 5082 c-3 -5 8 -6 25 -4 22 3 29 0 29 -12 0 -10 -9 -16 -24 -16
-28 0 -51 -24 -42 -46 4 -11 16 -14 43 -12 33 3 38 8 41 30 5 38 -14 68 -43
68 -13 0 -26 -4 -29 -8z m54 -56 c0 -17 -34 -31 -50 -21 -16 10 8 35 31 35 11
0 19 -6 19 -14z"/>
<path d="M5443 5040 c0 -30 2 -43 4 -27 2 15 2 39 0 55 -2 15 -4 2 -4 -28z"/>
<path d="M5480 5086 c0 -2 8 -24 19 -48 13 -32 16 -49 9 -62 -5 -10 -7 -20 -4
-23 3 -3 19 25 36 62 33 73 34 102 2 39 l-20 -39 -15 38 c-14 31 -27 48 -27
33z"/>
<path d="M5595 5081 c-4 -7 5 -9 25 -5 23 5 30 3 30 -10 0 -9 -8 -16 -18 -16
-10 0 -27 -6 -37 -14 -28 -20 -4 -46 41 -44 l35 1 -3 46 c-3 44 -5 46 -35 49
-17 2 -34 -2 -38 -7z m55 -56 c0 -9 -7 -18 -16 -22 -18 -7 -39 11 -30 26 11
17 46 13 46 -4z"/>
<path d="M6017 5084 c-13 -13 -7 -71 8 -84 16 -13 65 -6 65 10 0 6 -8 5 -19
-2 -15 -9 -23 -9 -35 1 -26 22 -19 31 24 31 37 0 39 2 31 23 -8 22 -58 36 -74
21z m61 -21 c2 -9 -7 -13 -27 -13 -30 0 -39 9 -24 24 11 10 46 3 51 -11z"/>
<path d="M6175 5081 c-4 -7 5 -9 25 -5 23 5 30 3 30 -10 0 -9 -8 -16 -18 -16
-10 0 -27 -6 -37 -14 -28 -20 -4 -46 41 -44 l35 1 -3 46 c-3 44 -5 46 -35 49
-17 2 -34 -2 -38 -7z m55 -56 c0 -9 -7 -18 -16 -22 -18 -7 -39 11 -30 26 11
17 46 13 46 -4z"/>
<path d="M6280 5038 c0 -58 16 -56 22 2 2 27 7 35 23 35 16 0 21 -8 23 -42 4
-51 22 -58 22 -9 0 56 -8 66 -51 66 l-39 0 0 -52z"/>
<path d="M6407 5083 c-13 -12 -7 -71 8 -83 8 -7 24 -10 36 -7 15 4 19 1 17
-11 -4 -21 -38 -28 -49 -11 -4 7 -11 10 -14 7 -13 -12 6 -28 34 -28 40 0 51
17 51 80 l0 57 -38 1 c-22 1 -42 -1 -45 -5z m61 -39 c4 -37 -23 -54 -46 -30
-22 22 -8 68 21 64 16 -2 23 -11 25 -34z"/>
<path d="M6527 5083 c-13 -12 -7 -71 8 -83 8 -7 24 -10 36 -7 15 4 19 1 17
-11 -4 -21 -38 -28 -49 -11 -4 7 -11 10 -14 7 -13 -12 6 -28 34 -28 40 0 51
17 51 80 l0 57 -38 1 c-22 1 -42 -1 -45 -5z m61 -39 c4 -37 -23 -54 -46 -30
-22 22 -8 68 21 64 16 -2 23 -11 25 -34z"/>
<path d="M6640 5051 c0 -46 14 -60 58 -59 32 1 32 2 32 50 0 26 -4 48 -10 48
-5 0 -10 -18 -10 -39 0 -26 -5 -41 -16 -45 -25 -10 -34 2 -34 45 0 21 -4 39
-10 39 -5 0 -10 -17 -10 -39z"/>
<path d="M204 4688 c-38 -18 -44 -51 -44 -228 0 -180 6 -210 47 -229 34 -16
2752 -16 2786 0 41 19 47 49 47 229 0 180 -6 210 -47 229 -33 15 -2758 14
-2789 -1z m226 -188 l0 -50 -40 0 -40 0 0 50 0 50 40 0 40 0 0 -50z m100 20
c0 -28 -2 -30 -40 -30 -38 0 -40 2 -40 30 0 28 2 30 40 30 38 0 40 -2 40 -30z
m433 -2 c12 -9 16 -26 14 -58 l-2 -45 -42 -3 -43 -3 0 54 c0 29 3 57 7 60 11
11 48 8 66 -5z m447 -47 c0 -54 -2 -59 -24 -63 -35 -7 -56 9 -56 41 0 32 22
56 45 47 10 -4 15 1 15 14 0 11 5 20 10 20 6 0 10 -26 10 -59z m-356 23 c10
-4 16 -18 16 -40 0 -43 -27 -60 -58 -38 -26 18 -28 46 -6 68 17 18 24 19 48
10z m86 -5 c0 -5 9 -4 20 3 29 19 54 -1 58 -44 3 -32 0 -36 -25 -41 -32 -6
-59 13 -50 37 4 9 16 16 27 16 11 0 20 4 20 8 0 5 -17 8 -37 8 -35 -2 -38 -4
-41 -34 -5 -48 -22 -39 -22 12 0 40 2 44 25 44 14 0 25 -4 25 -9z m170 -8 c15
-30 13 -71 -5 -71 -11 0 -15 11 -15 36 0 45 -24 42 -28 -4 -5 -48 -32 -42 -32
6 0 46 1 47 39 50 21 2 33 -4 41 -17z m178 7 c7 -7 12 -26 12 -44 0 -26 -5
-33 -25 -36 -14 -3 -32 0 -42 7 -21 16 -10 45 17 45 11 0 20 5 20 11 0 6 -9 8
-20 4 -11 -3 -20 -2 -20 3 0 23 38 30 58 10z m-958 -68 l0 -50 -40 0 -40 0 0
50 0 50 40 0 40 0 0 -50z m-100 -20 c0 -28 -2 -30 -40 -30 -38 0 -40 2 -40 30
0 28 2 30 40 30 38 0 40 -2 40 -30z"/>
<path d="M370 4500 c0 -23 4 -30 20 -30 16 0 20 7 20 30 0 23 -4 30 -20 30
-16 0 -20 -7 -20 -30z"/>
<path d="M470 4520 c0 -5 9 -10 20 -10 11 0 20 5 20 10 0 6 -9 10 -20 10 -11
0 -20 -4 -20 -10z"/>
<path d="M910 4495 c0 -8 9 -15 19 -15 26 0 35 16 15 24 -25 10 -34 7 -34 -9z"/>
<path d="M910 4446 c0 -11 9 -16 26 -16 31 0 28 23 -4 28 -15 2 -22 -2 -22
-12z"/>
<path d="M1357 4474 c-15 -15 -7 -45 11 -42 9 2 17 12 17 22 0 20 -16 31 -28
20z"/>
<path d="M1020 4470 c0 -5 7 -10 15 -10 8 0 15 5 15 10 0 6 -7 10 -15 10 -8 0
-15 -4 -15 -10z"/>
<path d="M1025 4430 c4 -6 11 -8 16 -5 14 9 11 15 -7 15 -8 0 -12 -5 -9 -10z"/>
<path d="M1171 4441 c-8 -6 -9 -11 -3 -15 6 -3 14 -1 17 5 9 14 2 20 -14 10z"/>
<path d="M1451 4441 c-8 -5 -9 -11 -3 -15 5 -3 15 1 22 9 14 16 3 20 -19 6z"/>
<path d="M470 4420 c0 -23 4 -30 20 -30 16 0 20 7 20 30 0 23 -4 30 -20 30
-16 0 -20 -7 -20 -30z"/>
<path d="M370 4400 c0 -5 9 -10 20 -10 11 0 20 5 20 10 0 6 -9 10 -20 10 -11
0 -20 -4 -20 -10z"/>
<path d="M12468 4511 c-9 -12 -12 -35 -9 -63 l6 -43 3 38 c2 26 8 37 20 37 13
0 13 2 -3 14 -18 13 -18 13 1 24 10 6 14 12 7 12 -6 0 -18 -9 -25 -19z"/>
<path d="M3622 4513 c13 -3 18 -18 21 -56 l3 -52 2 52 c2 45 5 52 25 56 12 2
2 4 -23 4 -25 1 -37 -1 -28 -4z"/>
<path d="M3791 4508 c-1 -10 -7 -18 -13 -18 -10 0 -10 -2 -1 -8 6 -4 13 -21
15 -37 2 -21 9 -31 23 -33 18 -2 18 -2 3 8 -20 13 -24 60 -5 60 8 0 9 3 1 8
-6 4 -14 14 -17 22 -4 12 -6 11 -6 -2z"/>
<path d="M3930 4465 c0 -30 5 -55 10 -55 6 0 10 25 10 55 0 30 -4 55 -10 55
-5 0 -10 -25 -10 -55z"/>
<path d="M4010 4465 l0 -56 38 3 37 3 0 50 0 50 -37 3 -38 3 0 -56z m68 28
c-2 -10 -13 -19 -26 -21 -17 -3 -22 2 -22 17 0 16 6 21 26 21 19 0 25 -5 22
-17z m0 -50 c-2 -10 -13 -19 -26 -21 -17 -3 -22 2 -22 17 0 16 6 21 26 21 19
0 25 -5 22 -17z"/>
<path d="M4303 4465 c-1 -33 1 -52 4 -42 6 21 17 22 33 2 7 -8 17 -15 23 -15
6 0 1 10 -11 23 -20 22 -21 24 -5 40 10 10 12 17 6 17 -7 0 -15 -4 -18 -10
-11 -18 -24 -10 -28 18 -2 15 -4 0 -4 -33z"/>
<path d="M4428 4470 c10 -30 23 -55 28 -57 6 -2 18 20 27 49 17 55 15 82 -3
32 -26 -72 -26 -72 -40 -29 -7 22 -16 44 -21 50 -5 5 -1 -15 9 -45z"/>
<path d="M4603 4465 c-1 -33 1 -52 4 -42 6 21 17 22 33 2 7 -8 17 -15 23 -15
6 0 1 10 -11 23 -20 22 -21 24 -5 40 10 10 12 17 6 17 -7 0 -15 -4 -18 -10
-11 -18 -24 -10 -28 18 -2 15 -4 0 -4 -33z"/>
<path d="M6113 4513 c13 -3 17 -15 17 -54 0 -27 5 -49 10 -49 6 0 10 22 10 49
0 39 4 51 18 54 9 3 -3 5 -28 5 -25 0 -37 -2 -27 -5z"/>
<path d="M6279 4505 c-9 -39 5 -90 26 -93 18 -2 18 -2 3 8 -10 6 -18 22 -18
35 0 14 7 25 18 28 15 4 15 5 0 6 -9 0 -18 9 -20 19 -3 15 -4 14 -9 -3z"/>
<path d="M6433 4465 c0 -33 2 -45 4 -27 2 18 2 45 0 60 -2 15 -4 0 -4 -33z"/>
<path d="M6511 4463 c1 -32 4 -46 6 -30 4 22 9 27 33 27 31 0 47 25 29 46 -6
8 -24 14 -40 14 -29 0 -29 0 -28 -57z m59 27 c0 -15 -7 -20 -25 -20 -18 0 -25
5 -25 20 0 15 7 20 25 20 18 0 25 -5 25 -20z"/>
<path d="M7260 4468 c11 -29 20 -54 20 -55 0 -2 4 -3 8 -3 10 0 46 99 39 106
-3 3 -10 -12 -17 -33 -19 -57 -26 -59 -40 -9 -7 26 -16 46 -21 46 -5 0 0 -24
11 -52z"/>
<path d="M7433 4465 c-1 -33 1 -52 4 -42 6 21 17 22 33 2 7 -8 17 -15 23 -15
6 0 1 10 -11 23 -20 22 -21 24 -5 40 10 10 12 17 6 17 -7 0 -15 -4 -18 -10
-11 -18 -24 -10 -28 18 -2 15 -4 0 -4 -33z"/>
<path d="M8607 4514 c-17 -17 -5 -43 23 -53 17 -5 30 -17 30 -25 0 -19 -31
-21 -49 -3 -11 10 -13 9 -9 -3 3 -9 17 -15 34 -15 23 0 30 5 32 23 3 18 -3 25
-27 33 -17 6 -31 17 -31 25 0 17 31 18 49 2 11 -11 13 -10 9 2 -5 16 -49 26
-61 14z"/>
<path d="M8944 4509 c20 -71 30 -99 38 -99 4 0 8 1 8 3 0 1 9 27 21 57 11 30
17 51 12 47 -4 -5 -15 -27 -25 -50 l-16 -42 -11 30 c-14 38 -33 76 -27 54z"/>
<path d="M9133 4465 c-1 -33 1 -51 4 -40 3 11 15 31 26 45 12 14 15 19 7 13
-21 -19 -28 -16 -33 15 -2 15 -4 0 -4 -33z"/>
<path d="M9676 4504 c-9 -23 -9 -24 29 -40 19 -8 35 -19 35 -24 0 -17 -31 -24
-51 -11 -11 6 -19 7 -19 2 0 -14 37 -23 60 -16 30 10 24 39 -11 56 -35 15 -36
34 -2 34 12 -1 19 3 17 7 -9 14 -52 8 -58 -8z"/>
<path d="M9863 4465 c0 -33 2 -45 4 -27 2 18 2 45 0 60 -2 15 -4 0 -4 -33z"/>
<path d="M11097 4514 c-16 -16 -5 -35 28 -51 19 -9 35 -21 35 -25 0 -16 -32
-21 -51 -9 -12 7 -19 8 -19 1 0 -16 26 -23 55 -16 35 9 32 39 -6 57 -18 8 -32
18 -33 24 -2 15 36 18 46 3 8 -10 9 -10 5 2 -4 16 -48 26 -60 14z"/>
<path d="M11448 4470 c10 -30 23 -55 29 -57 5 -2 15 15 22 38 7 22 15 48 18
58 4 11 3 13 -4 6 -6 -5 -16 -28 -23 -50 l-13 -40 -14 40 c-7 22 -18 44 -23
49 -6 6 -2 -14 8 -44z"/>
<path d="M11623 4465 c-1 -33 1 -52 4 -42 6 21 11 21 37 0 17 -14 16 -13 -2 8
l-23 27 22 16 c13 9 18 16 12 16 -7 0 -15 -4 -18 -10 -11 -18 -24 -10 -28 18
-2 15 -4 0 -4 -33z"/>
<path d="M12177 4471 c-19 -54 -22 -75 -6 -48 5 9 21 17 34 17 13 0 29 -8 34
-17 18 -31 12 3 -9 51 -10 25 -23 46 -27 46 -5 0 -16 -22 -26 -49z m37 -19
c-25 -6 -32 2 -22 28 l9 25 14 -25 c12 -21 12 -25 -1 -28z"/>
<path d="M12273 4465 c-1 -33 1 -52 4 -42 6 21 17 22 33 2 7 -8 17 -15 23 -15
6 0 1 10 -11 23 -20 22 -21 24 -5 40 10 10 12 17 6 17 -7 0 -15 -4 -18 -10
-11 -18 -24 -10 -28 18 -2 15 -4 0 -4 -33z"/>
<path d="M12359 4505 c-9 -39 5 -90 26 -93 18 -2 18 -2 3 8 -10 6 -18 22 -18
35 0 14 7 25 18 28 15 4 15 5 0 6 -9 0 -18 9 -20 19 -3 15 -4 14 -9 -3z"/>
<path d="M3694 4476 c-12 -32 0 -61 28 -64 22 -3 29 2 34 22 3 14 4 33 0 41
-7 19 -55 20 -62 1z m51 -26 c0 -29 -32 -41 -41 -16 -9 24 4 48 23 44 12 -2
18 -12 18 -28z"/>
<path d="M3845 4480 c-4 -7 2 -9 19 -4 15 3 26 2 26 -4 0 -5 -12 -13 -26 -16
-27 -7 -31 -40 -4 -42 10 -1 11 1 2 3 -17 6 -10 27 11 31 12 2 17 -3 17 -17 0
-12 5 -21 10 -21 11 0 13 39 4 64 -7 18 -49 22 -59 6z"/>
<path d="M4124 4476 c-11 -28 1 -61 22 -64 28 -4 48 22 40 53 -5 18 -13 25
-32 25 -13 0 -27 -6 -30 -14z m50 -11 c8 -22 -4 -46 -23 -43 -9 2 -17 15 -19
31 -3 21 1 27 16 27 11 0 22 -7 26 -15z"/>
<path d="M4214 4476 c-11 -28 1 -61 22 -64 28 -4 48 22 40 53 -5 18 -13 25
-32 25 -13 0 -27 -6 -30 -14z m50 -11 c8 -22 -4 -46 -23 -43 -9 2 -17 15 -19
31 -3 21 1 27 16 27 11 0 22 -7 26 -15z"/>
<path d="M4515 4480 c-4 -7 2 -9 19 -4 15 3 26 2 26 -4 0 -5 -12 -13 -26 -16
-27 -7 -31 -40 -4 -42 10 -1 11 1 2 3 -17 6 -10 27 11 31 12 2 17 -3 17 -17 0
-12 5 -21 10 -21 11 0 13 39 4 64 -7 18 -49 22 -59 6z"/>
<path d="M4687 4483 c-13 -12 -7 -24 18 -33 33 -12 33 -34 0 -28 -13 3 -22 1
-19 -3 9 -15 44 -10 51 8 4 9 2 18 -4 20 -5 2 -19 11 -29 19 -18 15 -18 15 8
11 15 -2 25 0 22 4 -6 11 -38 12 -47 2z"/>
<path d="M4760 4449 c0 -24 4 -38 10 -34 6 3 10 22 10 41 0 19 -4 34 -10 34
-5 0 -10 -18 -10 -41z"/>
<path d="M4800 4450 c0 -22 5 -40 10 -40 6 0 10 16 10 35 0 28 4 35 19 35 16
0 21 -8 23 -37 3 -30 6 -34 12 -20 15 31 -9 67 -44 67 -28 0 -30 -2 -30 -40z"/>
<path d="M4906 4481 c-3 -4 6 -6 19 -3 33 6 32 -14 -1 -22 -35 -9 -29 -41 9
-42 25 -1 27 2 27 37 0 35 -3 39 -24 39 -14 0 -27 -4 -30 -9z m44 -41 c0 -12
-28 -25 -36 -17 -9 9 6 27 22 27 8 0 14 -5 14 -10z"/>
<path d="M4990 4471 c0 -12 9 -21 25 -25 15 -4 23 -11 19 -17 -3 -6 -15 -8
-27 -5 -14 3 -17 2 -10 -5 15 -15 48 -7 48 11 0 8 -10 19 -22 25 -13 5 -23 13
-23 17 0 3 10 9 23 11 19 4 18 4 -5 6 -21 1 -28 -4 -28 -18z"/>
<path d="M5073 4450 c0 -25 2 -35 4 -22 2 12 2 32 0 45 -2 12 -4 2 -4 -23z"/>
<path d="M6187 4484 c-12 -12 -8 -51 8 -64 26 -22 50 -8 50 30 0 30 -4 35 -25
38 -14 2 -29 0 -33 -4z m51 -31 c-3 -31 -34 -44 -44 -19 -9 24 3 46 26 46 17
0 21 -5 18 -27z"/>
<path d="M6340 4482 c0 -5 11 -7 25 -4 15 2 25 0 25 -7 0 -6 -8 -11 -19 -11
-22 0 -45 -25 -36 -40 3 -5 20 -9 36 -8 28 2 30 5 27 38 -3 30 -7 35 -30 38
-16 2 -28 -1 -28 -6z m50 -41 c0 -6 -5 -13 -10 -16 -15 -9 -43 3 -35 15 8 13
45 13 45 1z"/>
<path d="M6610 4475 c-10 -12 -10 -21 -2 -40 11 -24 45 -34 56 -16 3 4 -6 6
-19 3 -18 -3 -25 0 -25 12 0 11 9 16 26 16 19 0 25 5 22 18 -4 22 -41 27 -58
7z m50 -5 c0 -5 -9 -10 -20 -10 -11 0 -20 5 -20 10 0 6 9 10 20 10 11 0 20 -4
20 -10z"/>
<path d="M6690 4450 c0 -22 5 -40 10 -40 6 0 10 16 10 35 0 28 4 35 20 35 16
0 20 -7 20 -35 0 -19 5 -35 10 -35 11 0 13 24 4 58 -5 17 -14 22 -40 22 -33 0
-34 -1 -34 -40z"/>
<path d="M6794 4476 c-11 -30 0 -61 25 -64 13 -2 28 1 34 7 7 7 2 10 -18 8
-15 -1 -30 4 -32 11 -3 8 6 12 27 12 25 0 31 4 28 18 -4 22 -56 29 -64 8z m51
-6 c4 -6 -5 -10 -20 -10 -15 0 -24 4 -20 10 3 6 12 10 20 10 8 0 17 -4 20 -10z"/>
<path d="M6881 4448 c1 -44 3 -43 13 4 3 14 14 29 24 31 10 3 6 5 -10 6 -26 1
-28 -1 -27 -41z"/>
<path d="M6943 4450 c0 -25 2 -35 4 -22 2 12 2 32 0 45 -2 12 -4 2 -4 -23z"/>
<path d="M6981 4448 l2 -43 6 35 c8 45 38 53 47 13 10 -48 12 -49 13 -10 1 31
4 38 19 35 10 -2 19 -16 24 -38 l6 -35 -1 40 -2 40 -57 3 -58 2 1 -42z"/>
<path d="M7125 4480 c-4 -7 2 -9 19 -4 15 3 26 2 26 -4 0 -5 -12 -13 -26 -16
-27 -7 -31 -40 -4 -42 10 -1 11 1 2 3 -17 6 -10 27 11 31 12 2 17 -3 17 -17 0
-12 5 -21 11 -21 6 0 9 16 7 38 -3 32 -7 37 -30 40 -14 2 -29 -2 -33 -8z"/>
<path d="M7345 4480 c-4 -7 2 -9 19 -4 15 3 26 2 26 -4 0 -5 -12 -13 -26 -16
-27 -7 -31 -40 -4 -42 10 -1 11 1 2 3 -17 6 -10 27 11 31 12 2 17 -3 17 -17 0
-12 5 -21 11 -21 6 0 9 16 7 38 -3 32 -7 37 -30 40 -14 2 -29 -2 -33 -8z"/>
<path d="M7517 4483 c-13 -12 -7 -24 18 -33 33 -12 33 -34 0 -28 -13 3 -22 1
-19 -3 9 -15 44 -10 51 8 4 9 2 18 -4 20 -5 2 -19 11 -29 19 -18 15 -18 15 9
11 15 -2 27 0 27 4 0 10 -44 12 -53 2z"/>
<path d="M7590 4450 c0 -22 5 -40 10 -40 6 0 10 18 10 40 0 22 -4 40 -10 40
-5 0 -10 -18 -10 -40z"/>
<path d="M7630 4450 c0 -22 5 -40 10 -40 6 0 10 16 10 35 0 28 4 35 20 35 16
0 20 -7 20 -35 0 -19 5 -35 10 -35 11 0 13 24 4 58 -5 17 -14 22 -40 22 -33 0
-34 -1 -34 -40z"/>
<path d="M8704 4476 c-16 -41 20 -86 48 -58 6 6 0 8 -16 5 -19 -4 -26 -1 -26
11 0 11 9 16 26 16 19 0 25 5 22 18 -4 22 -46 29 -54 8z m46 -6 c0 -5 -9 -10
-20 -10 -11 0 -20 5 -20 10 0 6 9 10 20 10 11 0 20 -4 20 -10z"/>
<path d="M8792 4473 c2 -9 10 -18 18 -20 12 -4 13 -3 1 5 -7 5 -10 15 -7 21 4
6 2 11 -4 11 -6 0 -10 -8 -8 -17z"/>
<path d="M8873 4450 c0 -25 2 -35 4 -22 2 12 2 32 0 45 -2 12 -4 2 -4 -23z"/>
<path d="M9046 4482 c-3 -5 6 -7 19 -4 28 5 35 -14 8 -21 -16 -4 -16 -5 0 -6
10 0 17 -7 15 -13 -6 -17 -44 -17 -40 0 1 8 -2 11 -7 7 -20 -12 1 -35 31 -33
27 2 29 5 26 38 -2 27 -8 36 -25 38 -11 2 -24 -1 -27 -6z"/>
<path d="M9212 4473 c2 -9 10 -18 18 -20 12 -4 13 -3 1 5 -7 5 -10 15 -7 21 4
6 2 11 -4 11 -6 0 -10 -8 -8 -17z"/>
<path d="M9293 4450 c0 -25 2 -35 4 -22 2 12 2 32 0 45 -2 12 -4 2 -4 -23z"/>
<path d="M9331 4446 l2 -41 6 35 c4 26 11 35 26 35 15 0 22 -9 27 -35 l6 -35
-1 40 c-2 38 -4 40 -34 41 -32 1 -33 0 -32 -40z"/>
<path d="M9430 4479 c0 -5 5 -7 10 -4 6 3 10 8 10 11 0 2 -4 4 -10 4 -5 0 -10
-5 -10 -11z"/>
<path d="M9470 4483 c17 -8 11 -23 -9 -23 -22 0 -45 -25 -36 -40 3 -5 20 -9
36 -8 28 2 30 5 27 37 -2 19 -9 36 -16 37 -7 1 -8 0 -2 -3z m10 -42 c0 -6 -5
-13 -10 -16 -15 -9 -43 3 -35 15 8 13 45 13 45 1z"/>
<path d="M9520 4471 c0 -12 9 -21 25 -25 15 -4 23 -11 19 -17 -3 -6 -17 -8
-31 -4 -16 4 -22 2 -18 -5 9 -15 41 -12 55 5 10 12 7 17 -14 27 -16 6 -25 17
-22 25 3 7 1 13 -4 13 -6 0 -10 -9 -10 -19z"/>
<path d="M9603 4450 c0 -25 2 -35 4 -22 2 12 2 32 0 45 -2 12 -4 2 -4 -23z"/>
<path d="M9774 4465 c-4 -15 -1 -32 6 -40 14 -17 46 -20 55 -6 3 6 -7 9 -21 8
-15 -1 -29 4 -31 11 -3 8 6 12 27 12 24 0 31 4 28 17 -2 9 -10 19 -18 21 -13
5 -13 3 -1 -11 12 -15 10 -17 -14 -17 -23 0 -26 2 -15 15 8 10 9 15 1 15 -6 0
-13 -11 -17 -25z"/>
<path d="M9904 4465 c-4 -15 -1 -32 6 -40 14 -17 46 -20 55 -6 3 6 -7 9 -21 8
-15 -1 -29 4 -31 11 -3 8 6 12 27 12 24 0 31 4 28 17 -2 9 -10 19 -18 21 -13
5 -13 3 -1 -11 12 -15 10 -17 -14 -17 -23 0 -26 2 -15 15 8 10 9 15 1 15 -6 0
-13 -11 -17 -25z"/>
<path d="M9997 4483 c-13 -12 -7 -24 18 -33 33 -13 33 -34 -1 -27 -16 3 -22 1
-16 -5 15 -15 46 -5 50 14 2 12 -5 19 -22 24 -33 8 -34 28 -1 22 13 -3 22 -1
19 3 -6 11 -38 12 -47 2z"/>
<path d="M10116 4476 c3 -9 -4 -16 -21 -20 -28 -7 -32 -40 -5 -42 10 -1 11 1
2 3 -17 6 -10 27 11 31 10 2 17 -5 20 -20 2 -13 5 -5 6 20 0 23 -3 42 -9 42
-5 0 -7 -6 -4 -14z"/>
<path d="M10163 4450 c0 -25 2 -35 4 -22 2 12 2 32 0 45 -2 12 -4 2 -4 -23z"/>
<path d="M11197 4484 c-4 -4 -7 -20 -7 -35 0 -22 6 -30 26 -35 14 -4 30 -2 36
4 8 8 3 11 -17 9 -15 -1 -30 4 -32 11 -3 8 6 12 27 12 25 0 31 4 28 18 -3 17
-48 29 -61 16z m48 -14 c4 -6 -5 -10 -20 -10 -15 0 -24 4 -20 10 3 6 12 10 20
10 8 0 17 -4 20 -10z"/>
<path d="M11287 4483 c-13 -12 -7 -24 18 -33 33 -13 33 -34 -1 -27 -16 3 -22
1 -16 -5 15 -15 46 -5 50 14 2 12 -5 19 -22 24 -33 8 -34 28 -1 22 13 -3 22
-1 19 3 -6 11 -38 12 -47 2z"/>
<path d="M11363 4450 c0 -25 2 -35 4 -22 2 12 2 32 0 45 -2 12 -4 2 -4 -23z"/>
<path d="M11536 4481 c-3 -4 6 -6 19 -3 33 6 32 -14 -1 -22 -35 -9 -29 -41 9
-42 25 -1 27 2 27 37 0 35 -3 39 -24 39 -14 0 -27 -4 -30 -9z m44 -41 c0 -12
-28 -25 -36 -17 -9 9 6 27 22 27 8 0 14 -5 14 -10z"/>
<path d="M11707 4483 c-13 -12 -7 -24 18 -33 33 -13 33 -34 -1 -27 -16 3 -22
1 -16 -5 15 -15 46 -5 50 14 2 12 -5 19 -22 24 -33 8 -34 28 -1 22 13 -3 22
-1 19 3 -6 11 -38 12 -47 2z"/>
<path d="M11783 4450 c0 -25 2 -35 4 -22 2 12 2 32 0 45 -2 12 -4 2 -4 -23z"/>
<path d="M11821 4448 c1 -44 3 -43 13 5 10 43 44 37 49 -10 l4 -38 -1 40 c-1
38 -3 40 -33 43 -33 3 -33 3 -32 -40z"/>
<path d="M11926 4482 c-3 -5 6 -7 19 -4 15 2 25 0 25 -7 0 -6 -8 -11 -19 -11
-22 0 -45 -25 -36 -40 3 -5 20 -9 36 -8 28 2 30 5 27 38 -2 27 -8 36 -25 38
-11 2 -24 -1 -27 -6z m44 -41 c0 -6 -5 -13 -10 -16 -15 -9 -43 3 -35 15 8 13
45 13 45 1z"/>
<path d="M12010 4471 c0 -12 9 -21 25 -25 34 -9 21 -29 -14 -22 -24 5 -25 5
-4 -6 12 -6 29 -8 37 -5 25 10 19 36 -9 43 -31 8 -32 21 -2 27 19 4 18 4 -5 6
-21 1 -28 -4 -28 -18z"/>
<path d="M12093 4450 c0 -25 2 -35 4 -22 2 12 2 32 0 45 -2 12 -4 2 -4 -23z"/>
<path d="M12423 4450 c0 -25 2 -35 4 -22 2 12 2 32 0 45 -2 12 -4 2 -4 -23z"/>
<path d="M8832 4440 c2 -10 -4 -15 -19 -14 -12 0 -20 -3 -17 -8 7 -12 42 -10
50 3 3 6 1 16 -6 22 -9 9 -11 8 -8 -3z"/>
<path d="M9165 4430 c10 -11 20 -20 23 -20 3 0 -3 9 -13 20 -10 11 -20 20 -23
20 -3 0 3 -9 13 -20z"/>
<path d="M9252 4440 c2 -10 -4 -15 -19 -14 -12 0 -20 -3 -17 -8 7 -12 42 -10
50 3 3 6 1 16 -6 22 -9 9 -11 8 -8 -3z"/>
<path d="M3635 4085 c-16 -13 -26 -27 -22 -31 4 -4 16 1 27 11 20 18 20 18 20
-53 0 -41 4 -72 10 -72 6 0 10 35 10 85 0 47 -3 85 -7 85 -5 -1 -21 -12 -38
-25z"/>
<path d="M3751 4062 c-17 -27 -31 -58 -31 -70 0 -53 76 -72 107 -26 15 23 15
29 2 52 -8 14 -25 29 -37 32 -21 5 -22 7 -8 25 18 23 20 35 7 35 -5 0 -23 -22
-40 -48z m60 -48 c19 -23 -1 -49 -37 -49 -30 0 -42 20 -30 51 7 19 50 18 67
-2z"/>
<path d="M3877 4092 c-10 -10 -17 -28 -17 -39 0 -24 30 -53 54 -53 15 0 15 -3
-5 -31 -14 -19 -17 -30 -9 -27 17 5 80 95 80 114 0 22 -38 54 -63 54 -13 0
-31 -8 -40 -18z m74 -18 c19 -23 -1 -49 -37 -49 -20 0 -30 6 -32 18 -8 40 43
63 69 31z"/>
<path d="M6130 4090 c-14 -14 -20 -33 -20 -63 0 -55 22 -87 60 -87 37 0 60 32
60 85 0 75 -54 111 -100 65z m69 -14 c18 -21 10 -97 -11 -110 -29 -18 -53 4
-56 53 -3 46 10 71 38 71 10 0 23 -6 29 -14z"/>
<path d="M8628 4089 c-35 -26 -37 -45 -3 -23 l25 16 0 -71 c0 -41 4 -71 10
-71 6 0 10 35 10 85 0 47 -3 85 -7 85 -5 0 -20 -10 -35 -21z"/>
<path d="M8727 4092 c-22 -25 -23 -115 -1 -136 8 -9 26 -16 39 -16 39 0 55 25
55 85 0 59 -16 85 -54 85 -13 0 -30 -8 -39 -18z m68 -67 c0 -58 -1 -60 -27
-63 -23 -3 -30 2 -38 24 -10 25 -6 75 7 97 3 5 17 7 31 5 26 -3 27 -6 27 -63z"/>
<path d="M11118 4099 c-10 -5 -18 -17 -18 -24 0 -20 16 -19 24 1 9 22 50 14
54 -11 2 -13 -13 -36 -43 -65 -25 -24 -45 -48 -45 -52 0 -4 27 -8 60 -8 33 0
60 4 60 10 0 6 -19 10 -42 10 l-42 0 37 38 c38 39 48 77 25 100 -15 15 -47 15
-70 1z"/>
<path d="M11258 4099 c-10 -5 -18 -17 -18 -24 0 -20 16 -19 24 1 9 22 50 14
54 -11 2 -13 -13 -36 -43 -65 -25 -24 -45 -48 -45 -52 0 -4 27 -8 60 -8 33 0
60 4 60 10 0 6 -19 10 -42 10 l-42 0 37 38 c38 39 48 77 25 100 -15 15 -47 15
-70 1z"/>
<path d="M347 3894 c-11 -11 -8 -49 5 -62 8 -8 8 -15 -1 -26 -7 -8 -11 -25 -9
-38 3 -22 6 -23 98 -23 92 0 95 1 98 23 2 13 -2 30 -8 38 -10 11 -10 17 0 28
6 8 10 25 8 38 -3 22 -8 23 -93 26 -50 1 -94 0 -98 -4z m173 -24 c0 -6 -6 -19
-12 -30 -10 -16 -10 -24 0 -40 22 -36 14 -40 -68 -40 -82 0 -90 4 -68 40 10
16 10 24 0 40 -22 36 -14 40 68 40 47 0 80 -4 80 -10z"/>
<path d="M430 3860 c0 -5 5 -10 10 -10 6 0 10 5 10 10 0 6 -4 10 -10 10 -5 0
-10 -4 -10 -10z"/>
<path d="M430 3820 c0 -5 5 -10 10 -10 6 0 10 5 10 10 0 6 -4 10 -10 10 -5 0
-10 -4 -10 -10z"/>
<path d="M430 3780 c0 -5 5 -10 10 -10 6 0 10 5 10 10 0 6 -4 10 -10 10 -5 0
-10 -4 -10 -10z"/>
<path d="M900 3826 c0 -55 1 -56 29 -56 39 0 50 17 42 65 -6 36 -9 40 -39 43
l-32 3 0 -55z m58 27 c-2 -10 -13 -19 -26 -21 -17 -3 -22 2 -22 17 0 16 6 21
26 21 19 0 25 -5 22 -17z m0 -50 c-2 -10 -13 -19 -26 -21 -17 -3 -22 2 -22 17
0 16 6 21 26 21 19 0 25 -5 22 -17z"/>
<path d="M1180 3825 c0 -30 5 -55 10 -55 6 0 10 7 10 17 0 14 2 14 20 -2 11
-10 22 -16 25 -13 3 3 -4 13 -15 23 -19 17 -19 19 -4 37 19 20 5 25 -14 6 -9
-9 -12 -6 -12 15 0 15 -4 27 -10 27 -5 0 -10 -25 -10 -55z"/>
<path d="M1301 3874 c-2 -20 31 -104 40 -104 5 0 9 2 9 5 0 2 9 27 20 55 11
27 16 50 11 50 -4 0 -13 -18 -20 -40 -11 -38 -30 -55 -31 -27 -1 16 -28 75
-29 61z"/>
<path d="M1480 3825 c0 -30 5 -55 10 -55 6 0 10 7 10 17 0 14 2 14 20 -2 11
-10 22 -16 25 -13 3 3 -4 13 -15 23 -19 17 -19 19 -4 37 19 20 5 25 -14 6 -9
-9 -12 -6 -12 15 0 15 -4 27 -10 27 -5 0 -10 -25 -10 -55z"/>
<path d="M1004 3836 c-3 -8 -4 -25 -2 -38 2 -18 9 -23 33 -23 28 0 30 3 30 35
0 31 -3 35 -28 38 -17 2 -29 -2 -33 -12z m51 -26 c0 -16 -6 -26 -18 -28 -19
-4 -32 20 -23 44 9 25 41 13 41 -16z"/>
<path d="M1094 3836 c-3 -8 -4 -25 -2 -38 2 -18 9 -23 33 -23 28 0 30 3 30 35
0 31 -3 35 -28 38 -17 2 -29 -2 -33 -12z m51 -26 c0 -16 -6 -26 -18 -28 -19
-4 -32 20 -23 44 9 25 41 13 41 -16z"/>
<path d="M1400 3842 c0 -5 11 -7 25 -4 15 2 25 0 25 -7 0 -6 -8 -11 -19 -11
-22 0 -45 -25 -36 -40 3 -5 20 -9 36 -8 28 2 30 5 27 38 -3 30 -7 35 -30 38
-16 2 -28 -1 -28 -6z m50 -41 c0 -6 -5 -13 -10 -16 -15 -9 -43 3 -35 15 8 13
45 13 45 1z"/>
<path d="M1566 3842 c-7 -11 6 -27 27 -35 29 -11 20 -30 -10 -22 -21 5 -25 4
-17 -5 16 -16 59 -8 59 10 0 8 -10 19 -22 25 -28 12 -30 29 -3 22 11 -3 20 -1
20 4 0 11 -47 12 -54 1z"/>
<path d="M1653 3810 c0 -25 2 -35 4 -22 2 12 2 32 0 45 -2 12 -4 2 -4 -23z"/>
<path d="M1691 3808 l2 -43 6 35 c4 26 11 35 26 35 15 0 22 -9 27 -35 l6 -35
-1 40 c-2 37 -4 40 -34 43 -33 3 -33 3 -32 -40z"/>
<path d="M1785 3840 c-4 -7 2 -9 19 -4 15 3 26 2 26 -4 0 -5 -12 -13 -26 -16
-27 -7 -31 -40 -4 -42 10 -1 11 1 2 3 -17 6 -10 27 11 31 12 2 17 -3 17 -17 0
-12 5 -21 10 -21 11 0 13 39 4 64 -7 18 -49 22 -59 6z"/>
<path d="M1877 3843 c-13 -12 -7 -24 18 -33 33 -13 33 -34 -1 -27 -16 3 -22 1
-16 -5 15 -15 46 -5 50 14 2 12 -5 19 -22 24 -33 8 -34 28 -1 22 13 -3 22 -1
19 3 -6 11 -38 12 -47 2z"/>
<path d="M1950 3810 c0 -22 5 -40 10 -40 6 0 10 18 10 40 0 22 -4 40 -10 40
-5 0 -10 -18 -10 -40z"/>
<path d="M3617 3764 c-12 -12 -8 -51 8 -64 26 -22 50 -8 50 30 0 30 -4 35 -25
38 -14 2 -29 0 -33 -4z m51 -31 c-3 -31 -34 -44 -44 -19 -9 24 3 46 26 46 17
0 21 -5 18 -27z"/>
<path d="M3711 3728 c2 -34 3 -37 6 -13 2 17 12 36 21 43 14 11 13 12 -6 12
-19 0 -22 -5 -21 -42z"/>
<path d="M3770 3762 c0 -5 11 -7 25 -4 15 2 25 0 25 -7 0 -6 -8 -11 -19 -11
-22 0 -45 -25 -36 -40 3 -5 20 -9 36 -8 28 2 30 5 27 38 -3 30 -7 35 -30 38
-16 2 -28 -1 -28 -6z m50 -41 c0 -6 -5 -13 -10 -16 -15 -9 -43 3 -35 15 8 13
45 13 45 1z"/>
<path d="M3850 3730 c0 -22 5 -40 10 -40 6 0 10 16 10 35 0 28 4 35 19 35 16
0 21 -8 23 -37 3 -30 6 -34 12 -20 15 31 -9 67 -44 67 -28 0 -30 -2 -30 -40z"/>
<path d="M3957 3763 c-4 -3 -7 -19 -7 -34 0 -28 28 -47 50 -34 5 3 10 -1 10
-11 0 -12 -7 -15 -30 -12 -19 3 -27 1 -21 -5 5 -5 19 -7 32 -5 21 3 24 9 27
56 3 51 3 52 -26 52 -16 0 -32 -3 -35 -7z m48 -33 c0 -16 -6 -26 -18 -28 -19
-4 -32 20 -23 44 9 25 41 13 41 -16z"/>
<path d="M6110 3755 c-18 -22 2 -65 30 -65 28 0 48 43 30 65 -7 8 -20 15 -30
15 -10 0 -23 -7 -30 -15z m50 -25 c0 -23 -4 -30 -20 -30 -16 0 -20 7 -20 30 0
23 4 30 20 30 16 0 20 -7 20 -30z"/>
<path d="M6201 3728 c2 -34 3 -37 6 -13 2 17 12 36 21 43 14 11 13 12 -6 12
-19 0 -22 -5 -21 -42z"/>
<path d="M6266 3762 c-3 -5 6 -7 19 -4 15 2 25 0 25 -7 0 -6 -8 -11 -19 -11
-23 0 -42 -22 -32 -38 4 -7 20 -11 35 -10 24 2 27 6 24 38 -2 27 -8 36 -25 38
-11 2 -24 -1 -27 -6z m44 -41 c0 -6 -5 -13 -10 -16 -15 -9 -43 3 -35 15 8 13
45 13 45 1z"/>
<path d="M6351 3728 l2 -43 6 35 c4 26 11 35 26 35 15 0 22 -9 27 -35 l6 -35
-1 40 c-2 37 -4 40 -34 43 -33 3 -33 3 -32 -40z"/>
<path d="M6447 3763 c-24 -23 8 -81 38 -69 9 3 15 0 15 -11 0 -12 -7 -14 -32
-9 -24 5 -29 3 -21 -5 6 -6 21 -9 34 -7 21 3 24 9 27 56 3 51 3 52 -26 52 -16
0 -32 -3 -35 -7z m48 -33 c0 -31 -31 -39 -40 -11 -8 26 2 43 23 39 11 -2 17
-13 17 -28z"/>
<path d="M8602 3753 c2 -9 10 -18 18 -20 12 -4 13 -3 1 5 -7 5 -10 15 -7 21 4
6 2 11 -4 11 -6 0 -10 -8 -8 -17z"/>
<path d="M8684 3756 c-14 -36 23 -83 46 -60 8 8 4 10 -11 10 -12 -1 -24 5 -26
12 -3 8 6 12 27 12 25 0 31 3 26 16 -3 9 -6 18 -6 20 0 2 -5 4 -11 4 -8 0 -8
-5 1 -15 11 -13 8 -15 -14 -15 -27 0 -35 15 -13 23 9 4 9 6 -1 6 -7 1 -15 -5
-18 -13z"/>
<path d="M8772 3753 c2 -9 10 -18 18 -20 12 -4 13 -3 1 5 -7 5 -10 15 -7 21 4
6 2 11 -4 11 -6 0 -10 -8 -8 -17z"/>
<path d="M8853 3730 c0 -25 2 -35 4 -22 2 12 2 32 0 45 -2 12 -4 2 -4 -23z"/>
<path d="M11097 3763 c-13 -12 -7 -24 18 -33 33 -13 33 -34 -1 -27 -16 3 -22
1 -16 -5 15 -15 46 -5 50 14 2 12 -5 19 -22 24 -33 8 -34 28 -1 22 13 -3 22
-1 19 3 -6 11 -38 12 -47 2z"/>
<path d="M11177 3764 c-11 -11 -8 -49 5 -62 14 -14 44 -16 53 -3 3 6 -7 9 -21
8 -15 -1 -29 4 -31 11 -3 8 6 12 27 12 25 0 31 4 28 18 -3 17 -48 29 -61 16z
m48 -14 c4 -6 -5 -10 -20 -10 -15 0 -24 4 -20 10 3 6 12 10 20 10 8 0 17 -4
20 -10z"/>
<path d="M11267 3763 c-13 -12 -7 -24 18 -33 33 -13 33 -34 -1 -27 -16 3 -22
1 -16 -5 15 -15 46 -5 50 14 2 12 -5 19 -22 24 -33 8 -34 28 -1 22 13 -3 22
-1 19 3 -6 11 -38 12 -47 2z"/>
<path d="M11340 3730 c0 -22 5 -40 10 -40 6 0 10 18 10 40 0 22 -4 40 -10 40
-5 0 -10 -18 -10 -40z"/>
<path d="M8642 3720 c2 -10 -4 -15 -19 -14 -12 0 -20 -3 -17 -8 7 -12 42 -10
50 3 3 6 1 16 -6 22 -9 9 -11 8 -8 -3z"/>
<path d="M8812 3720 c2 -10 -4 -15 -19 -14 -12 0 -20 -3 -17 -8 7 -12 42 -10
50 3 3 6 1 16 -6 22 -9 9 -11 8 -8 -3z"/>
<path d="M367 3261 c-15 -15 -17 -32 -15 -97 l3 -79 85 0 85 0 3 79 c3 71 1
81 -19 99 -15 14 -24 17 -27 9 -4 -14 -82 -16 -82 -2 0 15 -13 11 -33 -9z
m143 -31 c0 -6 -30 -10 -70 -10 -40 0 -70 4 -70 10 0 6 30 10 70 10 40 0 70
-4 70 -10z m0 -80 l0 -50 -70 0 -70 0 0 50 0 50 70 0 70 0 0 -50z"/>
<path d="M440 3145 c0 -20 5 -25 25 -25 20 0 25 5 25 25 0 20 -5 25 -25 25
-20 0 -25 -5 -25 -25z"/>
<path d="M897 3233 c-16 -15 -5 -35 28 -49 19 -8 35 -19 35 -24 0 -17 -31 -24
-51 -11 -11 6 -19 7 -19 1 0 -12 45 -24 65 -16 25 9 18 45 -10 52 -13 3 -29
12 -36 20 -16 19 17 31 42 16 15 -10 17 -9 13 3 -6 15 -55 21 -67 8z"/>
<path d="M1249 3188 c10 -28 22 -53 27 -55 11 -4 50 95 41 103 -3 3 -10 -12
-17 -33 -19 -57 -26 -59 -40 -9 -7 26 -16 46 -21 46 -4 0 0 -23 10 -52z"/>
<path d="M1423 3185 c-1 -33 1 -52 4 -42 6 21 17 22 33 2 7 -8 17 -15 23 -15
6 0 1 10 -11 23 -20 22 -21 24 -5 40 10 10 12 17 6 17 -7 0 -15 -4 -18 -10
-11 -18 -24 -10 -28 18 -2 15 -4 0 -4 -33z"/>
<path d="M997 3204 c-11 -11 -8 -49 5 -62 14 -14 44 -16 53 -3 3 6 -7 9 -21 8
-15 -1 -29 4 -31 11 -3 8 6 12 27 12 25 0 31 4 28 18 -3 17 -48 29 -61 16z
m48 -14 c4 -6 -5 -10 -20 -10 -15 0 -24 4 -20 10 3 6 12 10 20 10 8 0 17 -4
20 -10z"/>
<path d="M1087 3203 c-13 -12 -7 -24 18 -33 33 -12 33 -34 0 -28 -13 3 -22 1
-19 -3 9 -15 44 -10 51 8 4 9 2 18 -4 20 -5 2 -19 11 -29 19 -18 15 -18 15 9
11 15 -2 27 0 27 4 0 10 -44 12 -53 2z"/>
<path d="M1160 3170 c0 -22 5 -40 10 -40 6 0 10 18 10 40 0 22 -4 40 -10 40
-5 0 -10 -18 -10 -40z"/>
<path d="M1335 3200 c-4 -7 2 -9 19 -4 15 3 26 2 26 -4 0 -5 -12 -13 -26 -16
-27 -7 -31 -40 -4 -42 10 -1 11 1 2 3 -17 6 -10 27 11 31 12 2 17 -3 17 -17 0
-12 5 -21 10 -21 11 0 13 39 4 64 -7 18 -49 22 -59 6z"/>
<path d="M1507 3203 c-13 -12 -7 -24 18 -33 33 -12 33 -34 0 -28 -13 3 -22 1
-19 -3 9 -15 44 -10 51 8 4 9 2 18 -4 20 -5 2 -19 11 -29 19 -18 15 -18 15 9
11 15 -2 27 0 27 4 0 10 -44 12 -53 2z"/>
<path d="M1580 3170 c0 -22 5 -40 10 -40 6 0 10 18 10 40 0 22 -4 40 -10 40
-5 0 -10 -18 -10 -40z"/>
<path d="M1620 3170 c0 -22 5 -40 10 -40 6 0 10 16 10 35 0 28 4 35 20 35 16
0 20 -7 20 -35 0 -19 5 -35 10 -35 11 0 13 24 4 58 -5 17 -14 22 -40 22 -33 0
-34 -1 -34 -40z"/>
<path d="M1726 3201 c-3 -4 6 -6 19 -3 33 6 32 -14 -1 -22 -35 -9 -29 -41 9
-42 25 -1 27 2 27 37 0 35 -3 39 -24 39 -14 0 -27 -4 -30 -9z m44 -41 c0 -12
-28 -25 -36 -17 -9 9 6 27 22 27 8 0 14 -5 14 -10z"/>
<path d="M1817 3203 c-13 -12 -7 -24 18 -33 33 -13 33 -34 -1 -27 -16 3 -22 1
-16 -5 15 -15 46 -5 50 14 2 12 -5 19 -22 24 -33 8 -34 28 -1 22 13 -3 22 -1
19 3 -6 11 -38 12 -47 2z"/>
<path d="M1893 3170 c0 -25 2 -35 4 -22 2 12 2 32 0 45 -2 12 -4 2 -4 -23z"/>
<path d="M5178 2989 c-10 -5 -18 -18 -18 -29 0 -10 -6 -21 -12 -23 -10 -4 -10
-6 0 -6 8 -1 12 -19 12 -56 0 -30 5 -55 10 -55 6 0 10 24 10 54 0 49 2 55 23
59 l22 4 -22 2 c-30 1 -33 41 -3 41 11 0 20 5 20 10 0 13 -20 12 -42 -1z"/>
<path d="M3478 2979 c-10 -5 -18 -21 -18 -35 0 -21 9 -29 50 -46 35 -14 50
-26 48 -37 -4 -23 -68 -28 -80 -7 -5 9 -14 14 -19 10 -19 -11 23 -44 56 -44
36 0 71 31 61 55 -3 8 -26 24 -52 35 -33 14 -45 25 -42 37 4 24 45 28 69 7 17
-15 19 -15 19 -1 0 31 -57 47 -92 26z"/>
<path d="M3620 2966 c0 -13 -6 -27 -12 -29 -10 -4 -10 -6 0 -6 7 -1 12 -17 12
-44 0 -24 5 -48 12 -55 15 -15 48 -16 48 -2 0 6 -9 10 -20 10 -17 0 -20 7 -20
44 0 38 3 45 23 49 l22 4 -22 2 c-17 1 -23 7 -23 26 0 14 -4 25 -10 25 -5 0
-10 -11 -10 -24z"/>
<path d="M3850 2970 c0 -11 -7 -23 -15 -26 -14 -6 -14 -8 -1 -18 8 -6 16 -31
18 -56 3 -38 7 -45 26 -48 12 -2 22 1 22 7 0 6 -7 11 -15 11 -23 0 -21 87 3
93 16 4 16 5 0 6 -11 1 -18 9 -18 20 0 11 -4 23 -10 26 -5 3 -10 -3 -10 -15z"/>
<path d="M3930 2980 c0 -5 5 -10 10 -10 6 0 10 5 10 10 0 6 -4 10 -10 10 -5 0
-10 -4 -10 -10z"/>
<path d="M4120 2966 c0 -13 -6 -27 -12 -29 -10 -4 -10 -6 0 -6 7 -1 12 -17 12
-44 0 -24 5 -48 12 -55 15 -15 48 -16 48 -2 0 6 -9 10 -20 10 -17 0 -20 7 -20
44 0 38 3 45 23 49 l22 4 -22 2 c-17 1 -23 7 -23 26 0 14 -4 25 -10 25 -5 0
-10 -11 -10 -24z"/>
<path d="M4200 2980 c0 -5 7 -10 15 -10 8 0 15 5 15 10 0 6 -7 10 -15 10 -8 0
-15 -4 -15 -10z"/>
<path d="M4260 2905 c0 -50 4 -85 10 -85 6 0 10 11 10 25 0 14 4 25 8 25 5 0
19 -11 32 -25 13 -14 28 -25 34 -25 5 0 -5 16 -24 35 l-33 34 27 22 c36 29 25
37 -13 9 l-31 -21 0 45 c0 25 -4 46 -10 46 -6 0 -10 -35 -10 -85z"/>
<path d="M4450 2905 c0 -50 4 -85 10 -85 6 0 10 16 10 35 0 34 1 35 40 35 38
0 60 18 60 49 0 25 -41 51 -80 51 l-40 0 0 -85z m94 42 c9 -15 7 -21 -8 -33
-11 -8 -30 -14 -43 -14 -20 0 -23 5 -23 36 0 34 1 35 31 32 18 -2 37 -11 43
-21z"/>
<path d="M4960 2960 c0 -27 -2 -29 -24 -20 -35 13 -66 -12 -66 -53 0 -49 13
-61 65 -63 l45 -2 0 84 c0 49 -4 84 -10 84 -5 0 -10 -13 -10 -30z m-11 -44 c7
-8 11 -27 9 -43 -3 -24 -8 -28 -33 -28 -27 0 -30 4 -33 34 -5 46 31 69 57 37z"/>
<path d="M5250 2966 c0 -13 -6 -27 -12 -29 -10 -4 -10 -6 0 -6 7 -1 12 -17 12
-44 0 -24 5 -48 12 -55 15 -15 48 -16 48 -2 0 6 -9 10 -20 10 -17 0 -20 7 -20
44 0 38 3 45 23 49 l22 4 -22 2 c-17 1 -23 7 -23 26 0 14 -4 25 -10 25 -5 0
-10 -11 -10 -24z"/>
<path d="M5600 2985 c0 -28 53 -165 64 -165 11 0 66 138 66 163 0 24 -21 -11
-40 -68 -12 -36 -23 -65 -24 -65 -2 0 -13 28 -26 63 -21 59 -40 93 -40 72z"/>
<path d="M5880 2905 c0 -50 4 -85 10 -85 6 0 10 11 10 25 0 14 4 25 8 25 5 0
19 -11 32 -25 13 -14 28 -25 34 -25 5 0 -5 16 -24 35 l-33 34 27 22 c36 29 25
37 -13 9 l-31 -21 0 45 c0 25 -4 46 -10 46 -6 0 -10 -35 -10 -85z"/>
<path d="M6120 2980 c0 -5 7 -10 15 -10 8 0 15 5 15 10 0 6 -7 10 -15 10 -8 0
-15 -4 -15 -10z"/>
<path d="M3728 2943 c-9 -2 -19 -11 -22 -19 -7 -17 -2 -18 23 -2 21 13 55 4
49 -14 -3 -7 -19 -16 -38 -19 -38 -8 -52 -26 -39 -51 7 -13 20 -17 54 -16 l45
2 0 48 c0 37 -5 50 -22 62 -12 9 -25 15 -28 15 -3 -1 -12 -3 -22 -6z m52 -78
c0 -22 -38 -39 -56 -24 -11 9 -12 15 -3 25 15 19 59 18 59 -1z"/>
<path d="M4001 2933 c-28 -19 -13 -49 29 -58 32 -7 40 -29 14 -39 -8 -3 -24
-1 -34 4 -27 14 -34 12 -20 -5 16 -20 64 -19 81 1 18 22 1 46 -40 57 -41 10
-35 33 8 31 33 -2 34 10 2 19 -11 2 -29 -2 -40 -10z"/>
<path d="M4618 2936 c-29 -15 -37 -75 -13 -100 21 -20 59 -21 75 -1 15 18 7
19 -21 4 -23 -12 -49 3 -49 27 0 10 13 14 45 14 25 0 45 2 45 4 0 3 -4 16 -9
29 -11 29 -41 39 -73 23z m50 -18 c20 -20 14 -28 -23 -28 -22 0 -35 5 -35 13
0 28 36 37 58 15z"/>
<path d="M4771 2941 c-8 -5 -20 -7 -28 -4 -10 4 -13 -9 -13 -56 0 -34 4 -61
10 -61 6 0 10 22 10 49 0 41 3 51 20 56 32 10 50 -12 50 -61 0 -24 5 -44 10
-44 19 0 11 89 -10 110 -22 22 -29 24 -49 11z"/>
<path d="M5043 2939 c-23 -8 -32 -29 -13 -29 6 0 10 5 10 10 0 6 12 10 26 10
36 0 28 -33 -10 -40 -68 -12 -55 -71 16 -68 l39 1 -3 55 c-3 60 -22 77 -65 61z
m47 -73 c0 -20 -25 -37 -44 -30 -16 6 -21 25 -9 37 12 13 53 7 53 -7z"/>
<path d="M5358 2939 c-10 -5 -18 -14 -18 -20 0 -5 8 -4 19 2 20 13 51 6 51
-11 0 -11 -7 -14 -52 -24 -21 -5 -28 -12 -28 -31 0 -26 15 -32 73 -33 26 0 27
2 27 47 0 25 -4 51 -8 57 -11 17 -45 24 -64 13z m52 -74 c0 -20 -39 -40 -52
-27 -6 6 -8 18 -5 26 8 20 57 21 57 1z"/>
<path d="M5773 2939 c-23 -8 -32 -29 -13 -29 6 0 10 5 10 10 0 16 47 12 54 -5
4 -10 -3 -17 -22 -21 -46 -10 -52 -13 -58 -29 -11 -26 15 -46 58 -43 l39 3 -3
54 c-3 59 -22 76 -65 60z m57 -68 c0 -9 -27 -41 -35 -41 -29 0 -47 34 -22 43
21 9 57 7 57 -2z"/>
<path d="M6022 2939 c-37 -14 -27 -44 20 -63 40 -15 41 -17 25 -33 -15 -15
-20 -16 -38 -5 -12 8 -24 11 -27 7 -8 -8 18 -25 40 -25 31 0 48 12 48 36 0 18
-7 25 -32 32 -20 5 -34 16 -37 27 -3 15 2 17 33 12 20 -3 34 -2 31 2 -8 14
-39 19 -63 10z"/>
<path d="M6225 2940 c-11 -4 -23 -6 -27 -3 -5 2 -7 -24 -7 -59 l2 -63 6 47 c8
54 20 72 47 66 15 -2 20 -14 22 -56 4 -65 22 -69 22 -4 0 65 -21 88 -65 72z"/>
<path d="M3930 2880 c0 -33 4 -60 10 -60 6 0 10 27 10 60 0 33 -4 60 -10 60
-6 0 -10 -27 -10 -60z"/>
<path d="M4213 2880 c0 -36 2 -50 4 -32 2 17 2 47 0 65 -2 17 -4 3 -4 -33z"/>
<path d="M5470 2878 c0 -32 4 -58 10 -58 6 0 10 22 10 49 0 45 3 50 28 59 26
10 26 10 -10 9 l-38 0 0 -59z"/>
<path d="M6133 2880 c0 -36 2 -50 4 -32 2 17 2 47 0 65 -2 17 -4 3 -4 -33z"/>
<path d="M498 2567 l-28 -32 -23 29 -24 28 -48 -47 c-33 -34 -44 -50 -36 -58
8 -8 21 1 46 29 l35 39 24 -29 24 -28 41 41 c23 23 39 46 36 51 -10 16 -18 12
-47 -23z"/>
<path d="M897 2593 c-16 -15 -5 -35 28 -49 19 -8 35 -19 35 -24 0 -17 -31 -24
-51 -11 -11 6 -19 7 -19 1 0 -12 45 -24 65 -16 25 9 18 45 -10 52 -13 3 -29
12 -36 20 -16 19 17 31 42 16 15 -10 17 -9 13 3 -6 15 -55 21 -67 8z"/>
<path d="M999 2585 c-9 -39 5 -90 26 -93 18 -2 18 -2 3 8 -10 6 -18 22 -18 35
0 14 7 25 18 28 15 4 15 5 0 6 -9 0 -18 9 -20 19 -3 15 -4 14 -9 -3z"/>
<path d="M1153 2545 c-1 -33 1 -52 4 -42 6 21 11 21 37 0 17 -14 16 -13 -2 8
l-23 27 22 16 c13 9 18 16 12 16 -7 0 -15 -4 -18 -10 -11 -18 -24 -10 -28 18
-2 15 -4 0 -4 -33z"/>
<path d="M1264 2589 c19 -70 31 -99 39 -96 13 4 49 107 38 107 -5 0 -14 -21
-21 -47 l-13 -46 -24 49 c-13 27 -21 42 -19 33z"/>
<path d="M1453 2545 c-1 -33 1 -52 4 -42 6 21 11 21 37 0 17 -14 16 -13 -2 8
l-23 27 22 16 c13 9 18 16 12 16 -7 0 -15 -4 -18 -10 -11 -18 -24 -10 -28 18
-2 15 -4 0 -4 -33z"/>
<path d="M1055 2550 c-8 -26 11 -60 35 -60 27 0 44 34 30 60 -14 26 -57 27
-65 0z m55 -20 c0 -23 -4 -30 -20 -30 -16 0 -20 7 -20 30 0 23 4 30 20 30 16
0 20 -7 20 -30z"/>
<path d="M1360 2562 c0 -5 11 -7 25 -4 15 2 25 0 25 -7 0 -6 -8 -11 -19 -11
-22 0 -45 -25 -36 -40 3 -5 20 -9 36 -8 28 2 30 5 27 38 -3 30 -7 35 -30 38
-16 2 -28 -1 -28 -6z m50 -41 c0 -6 -5 -13 -10 -16 -15 -9 -43 3 -35 15 8 13
45 13 45 1z"/>
<path d="M1530 2551 c0 -12 9 -21 25 -25 15 -4 23 -11 19 -17 -3 -6 -18 -8
-33 -4 -19 5 -23 4 -15 -5 16 -17 58 -8 62 12 2 12 -5 19 -22 24 -32 8 -34 21
-3 27 19 4 18 4 -5 6 -21 1 -28 -4 -28 -18z"/>
<path d="M1613 2530 c0 -25 2 -35 4 -22 2 12 2 32 0 45 -2 12 -4 2 -4 -23z"/>
<path d="M1651 2528 c1 -44 3 -43 13 5 10 43 44 37 49 -10 l4 -38 -1 40 c-1
38 -3 40 -33 43 -33 3 -33 3 -32 -40z"/>
<path d="M3610 2470 c0 -27 5 -50 10 -50 6 0 10 7 10 17 0 15 1 15 18 0 29
-26 38 -20 12 8 l-23 25 23 25 c26 28 17 34 -12 8 -17 -15 -18 -15 -18 0 0 10
-4 17 -10 17 -5 0 -10 -22 -10 -50z"/>
<path d="M3773 2470 c0 -30 2 -43 4 -27 2 15 2 39 0 55 -2 15 -4 2 -4 -28z"/>
<path d="M4172 2470 c-1 -38 1 -50 8 -40 7 12 12 12 22 2 20 -20 32 -14 13 8
-15 17 -16 22 -4 36 12 15 11 16 -8 10 -17 -5 -22 -2 -26 16 -2 13 -5 -2 -5
-32z"/>
<path d="M4284 2475 c1 -49 2 -50 31 -50 29 0 30 1 31 50 l2 50 -7 -45 c-5
-36 -10 -45 -26 -45 -16 0 -21 9 -26 45 l-7 45 2 -50z"/>
<path d="M6588 2470 c9 -27 20 -50 24 -50 11 0 38 64 37 87 0 10 -9 0 -19 -22
l-18 -40 -11 28 c-6 16 -11 33 -11 38 0 5 -4 9 -9 9 -5 0 -2 -22 7 -50z"/>
<path d="M6742 2470 c-1 -38 1 -50 8 -40 7 12 12 12 22 2 20 -20 32 -14 13 8
-15 17 -16 22 -4 36 12 15 11 16 -8 10 -17 -5 -22 -2 -26 16 -2 13 -5 -2 -5
-32z"/>
<path d="M7220 2470 c0 -49 1 -50 30 -50 39 0 59 37 42 75 -9 19 -19 25 -42
25 -29 0 -30 -1 -30 -50z m58 -2 c-2 -25 -8 -33 -23 -33 -15 0 -21 8 -23 33
-3 29 -1 32 23 32 24 0 26 -3 23 -32z"/>
<path d="M7618 2506 c-22 -16 -23 -27 -3 -20 12 5 15 -2 15 -30 0 -20 5 -36
10 -36 6 0 10 23 10 50 0 53 -4 58 -32 36z"/>
<path d="M9018 2473 c9 -25 22 -48 28 -50 5 -2 17 19 26 47 9 27 12 50 8 50
-5 0 -11 -13 -15 -30 -10 -43 -22 -45 -35 -5 -6 19 -16 35 -21 35 -5 0 -1 -21
9 -47z"/>
<path d="M9172 2470 c-1 -38 1 -50 8 -40 7 12 12 12 22 2 20 -20 32 -14 13 8
-15 17 -16 22 -4 36 12 15 11 16 -8 10 -17 -5 -22 -2 -26 16 -2 13 -5 -2 -5
-32z"/>
<path d="M9650 2470 c0 -48 1 -50 28 -50 35 0 52 16 52 50 0 34 -17 50 -52 50
-27 0 -28 -2 -28 -50z m58 -2 c-2 -22 -9 -34 -20 -36 -15 -3 -18 4 -18 32 0
30 4 36 21 36 17 0 20 -5 17 -32z"/>
<path d="M10047 2514 c-14 -14 -7 -26 8 -14 12 10 19 10 27 2 9 -9 4 -20 -22
-47 l-34 -35 40 1 c21 1 31 3 22 6 -22 6 -23 17 -3 33 22 18 15 54 -10 58 -12
2 -24 0 -28 -4z"/>
<path d="M11478 2473 c9 -25 22 -48 28 -50 5 -2 17 19 26 47 9 27 12 50 8 50
-5 0 -11 -13 -15 -30 -10 -43 -22 -45 -35 -5 -6 19 -16 35 -21 35 -5 0 -1 -21
9 -47z"/>
<path d="M11630 2470 c0 -27 5 -50 10 -50 6 0 10 5 10 12 0 9 3 9 12 0 21 -21
32 -13 13 8 -18 20 -18 21 1 36 18 15 18 15 -3 9 -19 -5 -23 -2 -23 14 0 12
-4 21 -10 21 -5 0 -10 -22 -10 -50z"/>
<path d="M12110 2470 c0 -48 1 -50 28 -50 35 0 52 16 52 50 0 34 -17 50 -52
50 -27 0 -28 -2 -28 -50z m58 -2 c-2 -22 -9 -34 -20 -36 -15 -3 -18 4 -18 32
0 30 4 36 21 36 17 0 20 -5 17 -32z"/>
<path d="M12510 2507 c9 -7 14 -20 12 -29 -2 -11 3 -18 12 -18 18 0 21 -16 6
-25 -6 -4 -18 -1 -27 7 -14 11 -16 11 -11 -2 2 -8 17 -16 31 -18 34 -4 46 21
23 47 -12 13 -14 21 -7 26 21 13 10 25 -21 25 -28 -1 -31 -3 -18 -13z"/>
<path d="M3815 2486 c-26 -19 -16 -60 16 -64 29 -3 44 18 34 48 -8 24 -29 31
-50 16z m33 -28 c-4 -27 -23 -34 -32 -13 -8 21 1 35 20 35 10 0 14 -8 12 -22z"/>
<path d="M3898 2492 c-13 -2 -18 -13 -18 -38 0 -19 5 -34 10 -34 6 0 10 14 10
31 0 39 23 34 29 -7 l4 -29 6 29 c8 41 31 46 31 7 0 -17 5 -31 11 -31 6 0 9
14 7 32 -3 29 -7 33 -38 38 -19 3 -43 4 -52 2z"/>
<path d="M4028 2492 c-15 -3 -18 -14 -17 -55 1 -29 3 -44 6 -34 2 9 13 17 23
17 23 0 39 26 33 51 -6 20 -20 27 -45 21z m32 -31 c0 -11 -5 -23 -11 -27 -15
-9 -33 12 -26 30 9 23 37 20 37 -3z"/>
<path d="M4380 2490 c-16 -10 -6 -40 15 -40 8 0 15 -5 15 -11 0 -6 -9 -8 -21
-4 -15 5 -19 4 -15 -4 9 -14 43 -14 52 0 4 7 -3 20 -16 29 -22 17 -22 18 -4
22 16 3 16 5 3 10 -9 3 -22 3 -29 -2z"/>
<path d="M4493 2493 c-22 -8 -14 -21 9 -15 14 3 19 2 14 -6 -4 -7 -14 -12 -22
-12 -8 0 -14 -9 -14 -20 0 -16 7 -20 30 -20 27 0 30 3 30 30 0 30 -24 51 -47
43z m27 -53 c0 -5 -7 -10 -15 -10 -8 0 -15 5 -15 10 0 6 7 10 15 10 8 0 15 -4
15 -10z"/>
<path d="M6673 2484 c-17 -14 -17 -15 6 -8 16 4 21 3 17 -5 -4 -6 -14 -11 -22
-11 -8 0 -14 -9 -14 -20 0 -16 7 -20 30 -20 27 0 30 3 30 34 0 39 -19 52 -47
30z m29 -46 c-9 -9 -15 -9 -24 0 -9 9 -7 12 12 12 19 0 21 -3 12 -12z"/>
<path d="M6820 2490 c-16 -10 -6 -40 15 -40 8 0 15 -5 15 -11 0 -6 -9 -9 -20
-6 -11 3 -20 1 -20 -5 0 -14 53 -5 58 9 2 7 -8 17 -22 23 -31 11 -35 25 -6 17
11 -3 20 -2 20 3 0 12 -25 19 -40 10z"/>
<path d="M6938 2492 c-14 -2 -18 -13 -17 -40 1 -36 1 -36 8 -7 3 17 13 30 21
30 8 0 18 -13 21 -30 7 -30 7 -29 8 6 1 38 -10 48 -41 41z"/>
<path d="M7013 2484 c-17 -14 -17 -15 6 -8 16 4 21 3 17 -5 -4 -6 -14 -11 -22
-11 -8 0 -14 -9 -14 -20 0 -16 7 -20 30 -20 27 0 30 3 30 34 0 39 -19 52 -47
30z m29 -46 c-9 -9 -15 -9 -24 0 -9 9 -7 12 12 12 19 0 21 -3 12 -12z"/>
<path d="M7090 2490 c-16 -10 -6 -40 15 -40 8 0 15 -5 15 -11 0 -7 -10 -9 -26
-5 -17 5 -23 3 -19 -4 3 -5 17 -10 31 -10 17 0 24 5 24 20 0 11 -6 20 -14 20
-8 0 -18 5 -22 12 -5 8 0 9 14 6 12 -4 22 -3 22 2 0 12 -25 19 -40 10z"/>
<path d="M7325 2486 c-13 -9 -16 -20 -11 -40 5 -22 11 -27 34 -24 21 2 28 9
30 30 4 34 -26 54 -53 34z m35 -31 c0 -16 -6 -25 -15 -25 -9 0 -15 9 -15 25 0
16 6 25 15 25 9 0 15 -9 15 -25z"/>
<path d="M7407 2488 c-23 -12 -21 -25 3 -33 11 -3 20 -11 20 -16 0 -6 -9 -7
-21 -4 -15 5 -19 4 -15 -4 9 -14 43 -14 52 0 4 7 -3 20 -17 29 l-23 18 25 4
c18 2 20 5 8 10 -8 3 -23 2 -32 -4z"/>
<path d="M7510 2490 c-16 -10 -6 -40 15 -40 8 0 15 -5 15 -11 0 -6 -9 -9 -20
-6 -11 3 -20 1 -20 -5 0 -14 53 -5 58 9 2 7 -8 17 -22 23 -31 11 -35 25 -6 17
11 -3 20 -2 20 3 0 12 -25 19 -40 10z"/>
<path d="M9103 2484 c-17 -14 -17 -15 6 -8 16 4 21 3 17 -5 -4 -6 -14 -11 -22
-11 -8 0 -14 -9 -14 -20 0 -16 7 -20 30 -20 27 0 30 3 30 34 0 39 -19 52 -47
30z m29 -46 c-9 -9 -15 -9 -24 0 -9 9 -7 12 12 12 19 0 21 -3 12 -12z"/>
<path d="M9250 2490 c-16 -10 -6 -40 15 -40 8 0 15 -5 15 -11 0 -6 -9 -9 -20
-6 -11 3 -20 1 -20 -5 0 -14 53 -5 58 9 2 7 -8 17 -22 23 -31 11 -35 25 -6 17
11 -3 20 -2 20 3 0 12 -25 19 -40 10z"/>
<path d="M9368 2492 c-14 -2 -18 -13 -17 -40 1 -36 1 -36 8 -7 3 17 13 30 21
30 8 0 18 -13 21 -30 7 -30 7 -29 8 6 1 38 -10 48 -41 41z"/>
<path d="M9443 2484 c-17 -14 -17 -15 6 -8 16 4 21 3 17 -5 -4 -6 -14 -11 -22
-11 -8 0 -14 -9 -14 -20 0 -16 7 -20 30 -20 27 0 30 3 30 34 0 39 -19 52 -47
30z m29 -46 c-9 -9 -15 -9 -24 0 -9 9 -7 12 12 12 19 0 21 -3 12 -12z"/>
<path d="M9520 2490 c-16 -10 -6 -40 15 -40 8 0 15 -5 15 -11 0 -6 -9 -9 -20
-6 -11 3 -20 1 -20 -5 0 -14 53 -5 58 9 2 7 -8 17 -22 23 -31 11 -35 25 -6 17
11 -3 20 -2 20 3 0 12 -25 19 -40 10z"/>
<path d="M9755 2486 c-13 -9 -16 -20 -11 -40 5 -22 11 -27 34 -24 21 2 28 9
30 30 4 34 -26 54 -53 34z m35 -31 c0 -16 -6 -25 -15 -25 -9 0 -15 9 -15 25 0
16 6 25 15 25 9 0 15 -9 15 -25z"/>
<path d="M9837 2488 c-23 -12 -21 -25 3 -33 11 -3 20 -11 20 -16 0 -6 -9 -7
-21 -4 -15 5 -19 4 -15 -4 9 -14 43 -14 52 0 4 7 -3 20 -17 29 l-23 18 25 4
c18 2 20 5 8 10 -8 3 -23 2 -32 -4z"/>
<path d="M9940 2490 c-16 -10 -6 -40 15 -40 8 0 15 -5 15 -11 0 -6 -9 -8 -21
-4 -15 5 -19 4 -15 -4 9 -14 43 -14 52 0 4 7 -3 20 -16 29 -22 17 -22 18 -4
22 16 3 16 5 3 10 -9 3 -22 3 -29 -2z"/>
<path d="M11573 2493 c-21 -8 -15 -22 7 -16 29 8 25 -6 -6 -17 -32 -12 -27
-34 9 -38 25 -3 27 0 27 31 0 34 -13 48 -37 40z m22 -53 c-3 -5 -10 -10 -16
-10 -5 0 -9 5 -9 10 0 6 7 10 16 10 8 0 12 -4 9 -10z"/>
<path d="M11710 2490 c-16 -10 -6 -40 15 -40 8 0 15 -5 15 -11 0 -6 -9 -8 -21
-4 -15 5 -19 4 -15 -4 9 -14 43 -14 52 0 4 7 -3 20 -16 29 -22 17 -22 18 -4
22 16 3 16 5 3 10 -9 3 -22 3 -29 -2z"/>
<path d="M11828 2493 c-13 -3 -18 -15 -18 -39 0 -19 5 -34 10 -34 6 0 10 14
10 30 0 20 5 30 15 30 10 0 15 -10 15 -30 0 -16 5 -30 10 -30 16 0 12 47 -6
64 -8 9 -16 15 -17 15 -1 -1 -10 -3 -19 -6z"/>
<path d="M11913 2493 c-21 -8 -15 -22 7 -16 29 8 25 -6 -6 -17 -32 -12 -27
-34 9 -38 25 -3 27 0 27 31 0 34 -13 48 -37 40z m22 -53 c-3 -5 -10 -10 -16
-10 -5 0 -9 5 -9 10 0 6 7 10 16 10 8 0 12 -4 9 -10z"/>
<path d="M11980 2490 c-16 -10 -6 -40 15 -40 8 0 15 -5 15 -11 0 -6 -9 -8 -21
-4 -15 5 -19 4 -15 -4 9 -14 43 -14 52 0 4 7 -3 20 -16 29 -22 17 -22 18 -4
22 16 3 16 5 3 10 -9 3 -22 3 -29 -2z"/>
<path d="M12216 2484 c-19 -19 -20 -25 -3 -48 19 -26 51 -17 55 16 4 35 -29
56 -52 32z m39 -29 c0 -28 -29 -25 -33 3 -3 19 0 23 15 20 10 -2 18 -12 18
-23z"/>
<path d="M12300 2490 c-16 -10 -6 -40 15 -40 8 0 15 -5 15 -11 0 -7 -10 -9
-26 -5 -17 5 -23 3 -19 -4 3 -5 17 -10 31 -10 17 0 24 5 24 20 0 11 -6 20 -14
20 -8 0 -18 5 -22 12 -5 8 0 9 14 6 12 -4 22 -3 22 2 0 12 -25 19 -40 10z"/>
<path d="M12407 2488 c-23 -12 -21 -25 3 -33 11 -3 20 -11 20 -16 0 -6 -9 -7
-21 -4 -15 5 -19 4 -15 -4 9 -14 43 -14 52 0 4 7 -3 20 -17 29 l-23 18 25 4
c18 2 20 5 8 10 -8 3 -23 2 -32 -4z"/>
<path d="M3694 2476 c-15 -39 23 -74 50 -46 8 9 6 11 -11 6 -12 -4 -24 -2 -28
4 -4 6 4 10 20 10 20 0 26 4 23 18 -4 22 -46 29 -54 8z m36 -6 c0 -5 -4 -10
-10 -10 -5 0 -10 5 -10 10 0 6 5 10 10 10 6 0 10 -4 10 -10z"/>
<path d="M4094 2476 c-11 -29 1 -51 26 -51 21 0 26 5 28 33 3 29 1 32 -23 32
-14 0 -28 -6 -31 -14z m43 -12 c8 -21 -13 -42 -28 -27 -13 13 -5 43 11 43 6 0
13 -7 17 -16z"/>
<path d="M4440 2461 c0 -17 5 -33 10 -36 6 -4 10 8 10 29 0 20 -4 36 -10 36
-5 0 -10 -13 -10 -29z"/>
<path d="M6880 2455 c0 -19 5 -35 10 -35 6 0 10 16 10 35 0 19 -4 35 -10 35
-5 0 -10 -16 -10 -35z"/>
<path d="M7153 2455 c0 -22 2 -30 4 -17 2 12 2 30 0 40 -3 9 -5 -1 -4 -23z"/>
<path d="M7473 2455 c0 -22 2 -30 4 -17 2 12 2 30 0 40 -3 9 -5 -1 -4 -23z"/>
<path d="M9310 2455 c0 -19 5 -35 10 -35 6 0 10 16 10 35 0 19 -4 35 -10 35
-5 0 -10 -16 -10 -35z"/>
<path d="M9583 2455 c0 -22 2 -30 4 -17 2 12 2 30 0 40 -3 9 -5 -1 -4 -23z"/>
<path d="M9903 2455 c0 -22 2 -30 4 -17 2 12 2 30 0 40 -3 9 -5 -1 -4 -23z"/>
<path d="M11770 2461 c0 -17 5 -33 10 -36 6 -4 10 8 10 29 0 20 -4 36 -10 36
-5 0 -10 -13 -10 -29z"/>
<path d="M12040 2455 c0 -19 5 -35 10 -35 6 0 10 16 10 35 0 19 -4 35 -10 35
-5 0 -10 -16 -10 -35z"/>
<path d="M12363 2455 c0 -22 2 -30 4 -17 2 12 2 30 0 40 -3 9 -5 -1 -4 -23z"/>
<path d="M375 1980 c5 -15 2 -20 -12 -20 -15 0 -18 -7 -14 -51 2 -31 8 -52 17
-56 8 -3 14 -13 14 -23 0 -11 5 -22 10 -25 6 -3 10 5 10 18 0 14 6 27 14 30 9
4 15 25 17 56 4 44 1 51 -14 51 -14 0 -17 5 -12 20 5 16 2 20 -15 20 -17 0
-20 -4 -15 -20z m35 -40 c0 -5 -6 -10 -12 -10 -9 0 -8 -4 2 -10 13 -9 13 -11
0 -20 -10 -6 -11 -10 -2 -10 6 0 12 -4 12 -10 0 -5 -9 -10 -20 -10 -17 0 -20
7 -20 40 0 33 3 40 20 40 11 0 20 -4 20 -10z"/>
<path d="M1103 1950 c-3 -11 -10 -20 -17 -20 -8 0 -8 -2 1 -8 6 -4 13 -23 16
-42 l4 -35 1 37 c2 25 7 38 20 41 16 4 16 5 0 6 -10 0 -18 5 -18 11 0 5 8 14
18 19 16 10 16 10 -1 11 -11 0 -21 -9 -24 -20z"/>
<path d="M3624 1955 c-15 -12 -15 -14 -2 -9 14 5 17 -2 21 -38 3 -42 4 -42 5
10 1 28 1 52 -1 52 -2 0 -12 -7 -23 -15z"/>
<path d="M3680 1953 c-12 -15 -12 -16 0 -5 8 6 20 12 27 12 21 0 15 -25 -12
-50 -33 -31 -32 -40 8 -39 25 1 27 3 9 6 l-24 5 22 23 c24 26 24 58 -1 63 -9
1 -22 -5 -29 -15z"/>
<path d="M3968 1963 c25 -5 27 -18 7 -53 -8 -14 -14 -29 -14 -35 0 -17 38 59
39 78 0 12 -7 17 -27 16 -24 -2 -25 -2 -5 -6z"/>
<path d="M4063 1958 c9 -7 18 -31 20 -53 l4 -40 1 47 c1 26 7 49 15 51 6 3 -3
6 -22 6 -30 1 -33 -1 -18 -11z"/>
<path d="M4203 1920 c0 -31 2 -41 4 -22 3 23 9 32 23 32 14 0 20 -9 23 -32 l5
-33 -2 35 c-1 28 -5 36 -23 38 -12 2 -24 11 -26 20 -3 9 -4 -8 -4 -38z"/>
<path d="M6902 1958 c-17 -17 -15 -63 4 -79 22 -18 48 0 52 35 6 45 -29 71
-56 44z m43 -38 c0 -28 -4 -35 -20 -35 -13 0 -21 8 -23 23 -5 34 5 54 25 50
13 -2 18 -13 18 -38z"/>
<path d="M9339 1943 c-14 -38 3 -75 34 -71 17 2 23 11 25 36 6 59 -40 85 -59
35z m46 -23 c0 -25 -5 -36 -17 -38 -15 -3 -18 4 -18 38 0 34 3 41 18 38 12 -2
17 -13 17 -38z"/>
<path d="M9510 1955 c0 -9 -9 -15 -25 -15 -14 0 -25 -4 -25 -8 0 -5 10 -8 23
-8 16 1 22 -5 22 -19 0 -14 -6 -20 -22 -19 -12 0 -20 -3 -17 -8 3 -4 16 -7 29
-6 23 2 25 7 25 50 0 26 -2 48 -5 48 -3 0 -5 -7 -5 -15z"/>
<path d="M11812 1961 c-8 -5 -12 -23 -10 -47 3 -34 6 -39 28 -39 22 0 25 5 28
39 3 34 -8 56 -28 56 -3 0 -11 -4 -18 -9z m36 -44 c3 -32 0 -37 -17 -37 -17 0
-21 6 -21 33 0 61 33 63 38 4z"/>
<path d="M11970 1956 c0 -8 -10 -16 -22 -18 -18 -2 -23 -10 -23 -33 0 -26 4
-30 28 -31 26 -1 27 1 27 47 0 27 -2 49 -5 49 -3 0 -5 -6 -5 -14z m-2 -48 c-5
-34 -38 -37 -38 -4 0 20 5 26 21 26 15 0 20 -5 17 -22z"/>
<path d="M900 1905 c0 -54 1 -55 28 -55 36 0 52 17 52 55 0 38 -16 55 -52 55
-27 0 -28 -1 -28 -55z m58 33 c27 -27 7 -78 -30 -78 -15 0 -18 8 -18 45 0 37
3 45 18 45 10 0 23 -5 30 -12z"/>
<path d="M1159 1945 c-9 -39 5 -90 26 -93 18 -2 18 -2 3 8 -10 6 -18 22 -18
35 0 14 7 25 18 28 15 4 15 5 0 6 -9 0 -18 9 -20 19 -3 15 -4 14 -9 -3z"/>
<path d="M1408 1910 c10 -30 23 -55 29 -57 5 -2 15 15 22 38 7 22 15 48 18 58
4 11 3 13 -4 6 -6 -5 -16 -28 -23 -50 l-13 -40 -14 40 c-7 22 -18 44 -23 49
-6 6 -2 -14 8 -44z"/>
<path d="M1583 1905 c-1 -33 1 -52 4 -42 6 21 17 22 33 2 7 -8 17 -15 23 -15
6 0 1 10 -11 23 -20 22 -21 24 -5 40 10 10 12 17 6 17 -7 0 -15 -4 -18 -10
-11 -18 -24 -10 -28 18 -2 15 -4 0 -4 -33z"/>
<path d="M3895 1950 c-3 -5 0 -7 9 -4 11 4 16 -4 19 -38 l4 -43 1 48 c2 35 -2
47 -12 47 -8 0 -18 -4 -21 -10z"/>
<path d="M7072 1953 c-1 -7 -13 -13 -26 -13 -29 0 -44 -33 -26 -55 16 -19 49
-19 56 -1 3 8 4 29 1 48 -2 18 -5 27 -5 21z m-8 -32 c9 -14 -4 -41 -19 -41
-18 0 -28 17 -21 35 6 17 32 20 40 6z"/>
<path d="M455 1897 c-12 -75 -5 -92 35 -92 40 0 47 17 35 92 -6 39 -9 43 -35
43 -26 0 -29 -4 -35 -43z m49 7 c9 -23 8 -24 -14 -24 -11 0 -20 2 -20 4 0 12
13 36 20 36 4 0 11 -7 14 -16z m6 -44 c0 -5 -9 -10 -20 -10 -11 0 -20 5 -20
10 0 6 9 10 20 10 11 0 20 -4 20 -10z m0 -30 c0 -5 -9 -10 -20 -10 -11 0 -20
5 -20 10 0 6 9 10 20 10 11 0 20 -4 20 -10z"/>
<path d="M4293 1908 c2 -28 6 -33 30 -34 25 -1 27 2 26 35 -1 36 -1 36 -8 6
-9 -42 -38 -45 -45 -6 l-6 31 3 -32z"/>
<path d="M4372 1903 c1 -37 1 -37 5 -5 6 42 40 46 46 5 4 -26 4 -26 3 2 -1 25
-6 31 -28 33 -26 3 -28 1 -26 -35z"/>
<path d="M7104 1926 c-11 -29 1 -51 26 -51 21 0 25 5 25 29 0 18 -6 31 -15 33
-12 4 -12 3 -2 -5 19 -13 11 -46 -12 -50 -16 -3 -18 1 -14 27 5 33 1 41 -8 17z"/>
<path d="M7180 1925 c0 -8 2 -15 4 -15 2 0 6 7 10 15 3 8 1 15 -4 15 -6 0 -10
-7 -10 -15z"/>
<path d="M7253 1905 c0 -22 2 -30 4 -17 2 12 2 30 0 40 -3 9 -5 -1 -4 -23z"/>
<path d="M7287 1933 c-9 -9 12 -33 29 -33 8 0 14 -5 14 -11 0 -7 -11 -9 -26
-6 -16 3 -22 1 -16 -5 13 -13 44 -7 49 9 3 7 -7 17 -22 23 -14 5 -23 14 -20
20 7 11 2 13 -8 3z"/>
<path d="M9544 1926 c-11 -29 1 -51 26 -51 21 0 25 5 25 29 0 18 -6 31 -15 33
-12 4 -12 3 -2 -5 19 -13 11 -46 -12 -50 -16 -3 -18 1 -14 27 5 33 1 41 -8 17z"/>
<path d="M9620 1926 c0 -8 9 -18 20 -21 27 -9 26 -29 -1 -22 -16 4 -19 3 -11
-5 12 -12 42 -4 42 11 0 6 -9 15 -20 21 -11 6 -18 15 -15 21 4 5 1 9 -4 9 -6
0 -11 -6 -11 -14z"/>
<path d="M9693 1905 c0 -22 2 -30 4 -17 2 12 2 30 0 40 -3 9 -5 -1 -4 -23z"/>
<path d="M9731 1927 c-1 -11 7 -21 19 -24 26 -7 26 -20 0 -26 -18 -4 -18 -5 2
-3 28 1 36 26 10 33 -12 3 -23 12 -25 22 -4 13 -5 13 -6 -2z"/>
<path d="M12005 1920 c-11 -33 32 -68 49 -41 4 5 -3 7 -14 4 -24 -6 -37 21
-20 42 8 9 8 15 2 15 -6 0 -14 -9 -17 -20z"/>
<path d="M12045 1930 c3 -5 8 -10 11 -10 2 0 4 5 4 10 0 6 -5 10 -11 10 -5 0
-7 -4 -4 -10z"/>
<path d="M12087 1933 c-9 -9 12 -33 29 -33 8 0 14 -5 14 -11 0 -7 -11 -9 -26
-6 -16 3 -22 1 -16 -5 13 -13 44 -7 49 9 3 7 -7 17 -22 23 -14 5 -23 14 -20
20 7 11 2 13 -8 3z"/>
<path d="M12163 1905 c0 -22 2 -30 4 -17 2 12 2 30 0 40 -3 9 -5 -1 -4 -23z"/>
<path d="M12190 1925 c0 -8 2 -15 4 -15 2 0 6 7 10 15 3 8 1 15 -4 15 -6 0
-10 -7 -10 -15z"/>
<path d="M1005 1920 c-4 -7 2 -9 19 -4 15 3 26 2 26 -4 0 -5 -12 -13 -26 -16
-27 -7 -31 -40 -4 -42 10 -1 11 1 2 3 -17 6 -10 27 11 31 12 2 17 -3 17 -17 0
-12 5 -21 10 -21 11 0 13 39 4 64 -7 18 -49 22 -59 6z"/>
<path d="M1220 1922 c0 -5 11 -7 25 -4 15 2 25 0 25 -7 0 -6 -8 -11 -19 -11
-22 0 -45 -25 -36 -40 3 -5 20 -9 36 -8 28 2 30 5 27 38 -3 30 -7 35 -30 38
-16 2 -28 -1 -28 -6z m50 -41 c0 -6 -5 -13 -10 -16 -15 -9 -43 3 -35 15 8 13
45 13 45 1z"/>
<path d="M1300 1890 c0 -22 5 -40 10 -40 6 0 10 15 10 34 0 24 5 36 18 39 10
3 6 5 -10 6 -26 1 -28 -2 -28 -39z"/>
<path d="M1496 1921 c-3 -4 6 -6 19 -3 33 6 32 -14 -1 -22 -35 -9 -29 -41 9
-42 25 -1 27 2 27 37 0 35 -3 39 -24 39 -14 0 -27 -4 -30 -9z m44 -41 c0 -12
-28 -25 -36 -17 -9 9 6 27 22 27 8 0 14 -5 14 -10z"/>
<path d="M1667 1923 c-13 -12 -7 -24 18 -33 33 -13 33 -34 -1 -27 -16 3 -22 1
-16 -5 15 -15 46 -5 50 14 2 12 -5 19 -22 24 -33 8 -34 28 -1 22 13 -3 22 -1
19 3 -6 11 -38 12 -47 2z"/>
<path d="M1740 1890 c0 -22 5 -40 10 -40 6 0 10 18 10 40 0 22 -4 40 -10 40
-5 0 -10 -18 -10 -40z"/>
<path d="M1780 1890 c0 -22 5 -40 10 -40 6 0 10 16 10 35 0 28 4 35 20 35 16
0 20 -7 20 -35 0 -19 5 -35 10 -35 11 0 13 24 4 58 -5 17 -14 22 -40 22 -33 0
-34 -1 -34 -40z"/>
<path d="M3798 1913 c6 -2 18 -2 25 0 6 3 1 5 -13 5 -14 0 -19 -2 -12 -5z"/>
<path d="M4164 1903 c0 -10 -7 -19 -18 -21 -15 -3 -17 0 -12 14 6 15 4 16 -5
7 -16 -16 -2 -33 26 -31 19 2 25 8 25 25 0 13 -4 23 -9 23 -5 0 -8 -8 -7 -17z"/>
<path d="M7210 1903 c19 -9 10 -25 -11 -20 -16 4 -19 3 -11 -5 13 -13 45 -2
40 14 -2 6 -10 13 -16 14 -7 1 -8 0 -2 -3z"/>
<path d="M12220 1903 c19 -9 10 -25 -11 -20 -16 4 -19 3 -11 -5 13 -13 45 -2
40 14 -2 6 -10 13 -16 14 -7 1 -8 0 -2 -3z"/>
<path d="M3624 1425 c-15 -12 -15 -14 -2 -9 14 5 17 -2 21 -38 3 -42 4 -42 5
10 1 28 1 52 -1 52 -2 0 -12 -7 -23 -15z"/>
<path d="M3679 1423 c-13 -16 -12 -17 3 -4 19 14 53 8 43 -9 -3 -5 -15 -10
-25 -10 -22 0 -37 -37 -22 -52 6 -6 22 -8 36 -4 21 5 25 11 22 40 -5 57 -30
74 -57 39z m49 -50 c5 -17 -26 -29 -40 -15 -6 6 -7 15 -3 22 9 14 37 9 43 -7z"/>
<path d="M3900 1415 c0 -20 5 -25 26 -25 19 0 25 -4 22 -17 -2 -11 -12 -18
-26 -17 -14 0 -19 -3 -13 -9 17 -17 46 -3 46 23 0 18 -6 26 -22 28 -13 2 -23
10 -23 17 0 7 10 16 23 18 19 4 18 4 -5 6 -24 1 -28 -3 -28 -24z"/>
<path d="M3993 1433 c-15 -5 -18 -53 -4 -53 5 0 7 8 4 19 -6 23 14 38 30 22 8
-8 7 -19 -6 -40 -23 -39 -21 -49 3 -18 24 30 26 63 4 71 -9 3 -16 6 -17 5 -1
0 -8 -3 -14 -6z"/>
<path d="M4102 1433 c12 -3 18 -18 21 -51 l3 -47 2 47 c2 35 6 48 20 51 9 3
-1 5 -23 5 -22 0 -32 -2 -23 -5z"/>
<path d="M4243 1390 c0 -31 2 -41 4 -22 3 23 9 32 23 32 14 0 20 -9 23 -32 l5
-33 -2 35 c-1 28 -5 36 -23 38 -12 2 -24 11 -26 20 -3 9 -4 -8 -4 -38z"/>
<path d="M6902 1428 c-17 -17 -15 -63 4 -79 22 -18 48 0 52 35 6 45 -29 71
-56 44z m43 -38 c0 -28 -4 -35 -20 -35 -13 0 -21 8 -23 23 -5 34 5 54 25 50
13 -2 18 -13 18 -38z"/>
<path d="M9339 1413 c-14 -38 3 -75 34 -71 17 2 23 11 25 36 6 59 -40 85 -59
35z m46 -23 c0 -25 -5 -36 -17 -38 -15 -3 -18 4 -18 38 0 34 3 41 18 38 12 -2
17 -13 17 -38z"/>
<path d="M9510 1425 c0 -9 -9 -15 -25 -15 -14 0 -25 -4 -25 -8 0 -5 10 -8 23
-8 16 1 22 -5 22 -19 0 -14 -6 -20 -22 -19 -12 0 -20 -3 -17 -8 3 -4 16 -7 29
-6 23 2 25 7 25 50 0 26 -2 48 -5 48 -3 0 -5 -7 -5 -15z"/>
<path d="M11812 1431 c-8 -5 -12 -23 -10 -47 3 -34 6 -39 28 -39 22 0 25 5 28
39 3 34 -8 56 -28 56 -3 0 -11 -4 -18 -9z m36 -44 c3 -32 0 -37 -17 -37 -17 0
-21 6 -21 33 0 61 33 63 38 4z"/>
<path d="M11970 1426 c0 -8 -10 -16 -22 -18 -18 -2 -23 -10 -23 -33 0 -26 4
-30 28 -31 26 -1 27 1 27 47 0 27 -2 49 -5 49 -3 0 -5 -6 -5 -14z m-2 -48 c-5
-34 -38 -37 -38 -4 0 20 5 26 21 26 15 0 20 -5 17 -22z"/>
<path d="M7072 1423 c-1 -7 -13 -13 -26 -13 -29 0 -44 -33 -26 -55 16 -19 49
-19 56 -1 3 8 4 29 1 48 -2 18 -5 27 -5 21z m-8 -32 c9 -14 -4 -41 -19 -41
-18 0 -28 17 -21 35 6 17 32 20 40 6z"/>
<path d="M4333 1378 c2 -28 6 -33 30 -34 25 -1 27 2 26 35 -1 36 -1 36 -8 6
-9 -42 -38 -45 -45 -6 l-6 31 3 -32z"/>
<path d="M4412 1373 c1 -37 1 -37 5 -5 6 42 40 46 46 5 4 -26 4 -26 3 2 -1 25
-6 31 -28 33 -26 3 -28 1 -26 -35z"/>
<path d="M7104 1396 c-11 -29 1 -51 26 -51 21 0 25 5 25 29 0 18 -6 31 -15 33
-12 4 -12 3 -2 -5 19 -13 11 -46 -12 -50 -16 -3 -18 1 -14 27 5 33 1 41 -8 17z"/>
<path d="M7180 1395 c0 -8 2 -15 4 -15 2 0 6 7 10 15 3 8 1 15 -4 15 -6 0 -10
-7 -10 -15z"/>
<path d="M7253 1375 c0 -22 2 -30 4 -17 2 12 2 30 0 40 -3 9 -5 -1 -4 -23z"/>
<path d="M7287 1403 c-9 -9 12 -33 29 -33 8 0 14 -5 14 -11 0 -7 -11 -9 -26
-6 -16 3 -22 1 -16 -5 13 -13 44 -7 49 9 3 7 -7 17 -22 23 -14 5 -23 14 -20
20 7 11 2 13 -8 3z"/>
<path d="M9544 1396 c-11 -29 1 -51 26 -51 21 0 25 5 25 29 0 18 -6 31 -15 33
-12 4 -12 3 -2 -5 19 -13 11 -46 -12 -50 -16 -3 -18 1 -14 27 5 33 1 41 -8 17z"/>
<path d="M9620 1396 c0 -8 9 -18 20 -21 27 -9 26 -29 -1 -22 -16 4 -19 3 -11
-5 12 -12 42 -4 42 11 0 6 -9 15 -20 21 -11 6 -18 15 -15 21 4 5 1 9 -4 9 -6
0 -11 -6 -11 -14z"/>
<path d="M9693 1375 c0 -22 2 -30 4 -17 2 12 2 30 0 40 -3 9 -5 -1 -4 -23z"/>
<path d="M9731 1397 c-1 -11 7 -21 19 -24 26 -7 26 -20 0 -26 -18 -4 -18 -5 2
-3 28 1 36 26 10 33 -12 3 -23 12 -25 22 -4 13 -5 13 -6 -2z"/>
<path d="M12005 1390 c-11 -33 32 -68 49 -41 4 5 -3 7 -14 4 -24 -6 -37 21
-20 42 8 9 8 15 2 15 -6 0 -14 -9 -17 -20z"/>
<path d="M12045 1400 c3 -5 8 -10 11 -10 2 0 4 5 4 10 0 6 -5 10 -11 10 -5 0
-7 -4 -4 -10z"/>
<path d="M12087 1403 c-9 -9 12 -33 29 -33 8 0 14 -5 14 -11 0 -7 -11 -9 -26
-6 -16 3 -22 1 -16 -5 13 -13 44 -7 49 9 3 7 -7 17 -22 23 -14 5 -23 14 -20
20 7 11 2 13 -8 3z"/>
<path d="M12163 1375 c0 -22 2 -30 4 -17 2 12 2 30 0 40 -3 9 -5 -1 -4 -23z"/>
<path d="M12190 1395 c0 -8 2 -15 4 -15 2 0 6 7 10 15 3 8 1 15 -4 15 -6 0
-10 -7 -10 -15z"/>
<path d="M3808 1383 c6 -2 18 -2 25 0 6 3 1 5 -13 5 -14 0 -19 -2 -12 -5z"/>
<path d="M4204 1373 c0 -10 -7 -19 -18 -21 -15 -3 -17 0 -12 14 6 15 4 16 -5
7 -16 -16 -2 -33 26 -31 19 2 25 8 25 25 0 13 -4 23 -9 23 -5 0 -8 -8 -7 -17z"/>
<path d="M7210 1373 c19 -9 10 -25 -11 -20 -16 4 -19 3 -11 -5 13 -13 45 -2
40 14 -2 6 -10 13 -16 14 -7 1 -8 0 -2 -3z"/>
<path d="M12220 1373 c19 -9 10 -25 -11 -20 -16 4 -19 3 -11 -5 13 -13 45 -2
40 14 -2 6 -10 13 -16 14 -7 1 -8 0 -2 -3z"/>
<path d="M3712 901 c-8 -5 -12 -23 -10 -47 3 -34 6 -39 28 -39 22 0 25 5 28
39 3 34 -8 56 -28 56 -3 0 -11 -4 -18 -9z m36 -44 c3 -32 0 -37 -17 -37 -17 0
-21 6 -21 33 0 61 33 63 38 4z"/>
<path d="M3822 903 c12 -3 18 -18 21 -51 l3 -47 2 47 c2 35 6 48 20 51 9 3 -1
5 -23 5 -22 0 -32 -2 -23 -5z"/>
<path d="M3962 860 c0 -41 2 -47 7 -25 9 43 39 45 44 3 l4 -33 1 38 c2 33 -1
37 -22 37 -15 0 -26 7 -29 18 -3 9 -5 -8 -5 -38z"/>
<path d="M4252 860 c0 -35 2 -46 7 -32 l6 24 19 -21 c11 -12 24 -21 30 -21 5
0 -4 15 -21 33 -17 17 -33 41 -36 52 -3 11 -5 -5 -5 -35z"/>
<path d="M4285 890 c-10 -11 -13 -20 -8 -20 13 0 38 29 31 35 -3 3 -13 -4 -23
-15z"/>
<path d="M4531 898 c-1 -10 -7 -18 -13 -18 -10 0 -10 -2 -2 -8 7 -4 14 -18 15
-31 2 -14 10 -26 17 -27 7 -1 8 0 2 3 -14 7 -12 53 3 53 8 0 9 3 1 8 -6 4 -14
14 -17 22 -4 12 -6 11 -6 -2z"/>
<path d="M6902 898 c-17 -17 -15 -63 4 -79 22 -18 48 0 52 35 6 45 -29 71 -56
44z m43 -38 c0 -28 -4 -35 -20 -35 -13 0 -21 8 -23 23 -5 34 5 54 25 50 13 -2
18 -13 18 -38z"/>
<path d="M9339 883 c-14 -38 3 -75 34 -71 17 2 23 11 25 36 6 59 -40 85 -59
35z m46 -23 c0 -25 -5 -36 -17 -38 -15 -3 -18 4 -18 38 0 34 3 41 18 38 12 -2
17 -13 17 -38z"/>
<path d="M9510 895 c0 -9 -9 -15 -25 -15 -14 0 -25 -4 -25 -8 0 -5 10 -8 23
-8 16 1 22 -5 22 -19 0 -14 -6 -20 -22 -19 -12 0 -20 -3 -17 -8 3 -4 16 -7 29
-6 23 2 25 7 25 50 0 26 -2 48 -5 48 -3 0 -5 -7 -5 -15z"/>
<path d="M11812 901 c-8 -5 -12 -23 -10 -47 3 -34 6 -39 28 -39 22 0 25 5 28
39 3 34 -8 56 -28 56 -3 0 -11 -4 -18 -9z m36 -44 c3 -32 0 -37 -17 -37 -17 0
-21 6 -21 33 0 61 33 63 38 4z"/>
<path d="M11970 896 c0 -8 -10 -16 -22 -18 -18 -2 -23 -10 -23 -33 0 -26 4
-30 28 -31 26 -1 27 1 27 47 0 27 -2 49 -5 49 -3 0 -5 -6 -5 -14z m-2 -48 c-5
-34 -38 -37 -38 -4 0 20 5 26 21 26 15 0 20 -5 17 -22z"/>
<path d="M3624 875 c-8 -13 -14 -32 -12 -42 4 -22 41 -29 57 -10 12 16 5 47
-11 47 -6 0 -5 -7 2 -15 16 -19 -1 -41 -24 -32 -17 7 -22 37 -7 37 5 0 11 9
14 20 7 27 1 25 -19 -5z"/>
<path d="M7072 893 c-1 -7 -13 -13 -26 -13 -29 0 -44 -33 -26 -55 16 -19 49
-19 56 -1 3 8 4 29 1 48 -2 18 -5 27 -5 21z m-8 -32 c9 -14 -4 -41 -19 -41
-18 0 -28 17 -21 35 6 17 32 20 40 6z"/>
<path d="M3928 855 c3 -17 -1 -27 -12 -31 -23 -9 -34 4 -16 17 13 9 13 10 0 6
-26 -7 -17 -32 13 -33 23 -1 27 3 27 27 0 15 -4 30 -9 33 -4 3 -6 -6 -3 -19z"/>
<path d="M4053 848 c2 -28 6 -33 30 -34 25 -1 27 2 26 35 -1 36 -1 36 -8 6 -9
-42 -38 -45 -45 -6 l-6 31 3 -32z"/>
<path d="M4131 843 c1 -37 2 -37 8 -8 9 43 39 45 44 3 l4 -33 1 38 c2 35 0 37
-28 37 -28 0 -30 -2 -29 -37z"/>
<path d="M4334 866 c-14 -38 22 -74 48 -48 6 6 0 8 -16 5 -15 -3 -26 -1 -26 6
0 6 12 11 26 11 18 0 25 5 22 17 -2 9 -9 18 -16 19 -7 1 -8 0 -2 -3 18 -8 11
-23 -11 -23 -15 0 -19 5 -15 15 3 8 3 15 0 15 -2 0 -7 -6 -10 -14z"/>
<path d="M4618 855 c3 -17 -1 -27 -12 -31 -23 -9 -34 4 -16 17 13 9 13 10 0 6
-26 -7 -17 -32 13 -33 23 -1 27 3 27 27 0 15 -4 30 -9 33 -4 3 -6 -6 -3 -19z"/>
<path d="M4650 866 c0 -8 9 -18 20 -21 27 -9 26 -29 -1 -22 -16 4 -19 3 -11
-5 12 -12 42 -4 42 11 0 6 -9 15 -20 21 -11 6 -18 15 -15 21 4 5 1 9 -4 9 -6
0 -11 -6 -11 -14z"/>
<path d="M7104 866 c-11 -29 1 -51 26 -51 21 0 25 5 25 29 0 18 -6 31 -15 33
-12 4 -12 3 -2 -5 19 -13 11 -46 -12 -50 -16 -3 -18 1 -14 27 5 33 1 41 -8 17z"/>
<path d="M7180 865 c0 -8 2 -15 4 -15 2 0 6 7 10 15 3 8 1 15 -4 15 -6 0 -10
-7 -10 -15z"/>
<path d="M7253 845 c0 -22 2 -30 4 -17 2 12 2 30 0 40 -3 9 -5 -1 -4 -23z"/>
<path d="M7287 873 c-9 -9 12 -33 29 -33 8 0 14 -5 14 -11 0 -7 -11 -9 -26 -6
-16 3 -22 1 -16 -5 13 -13 44 -7 49 9 3 7 -7 17 -22 23 -14 5 -23 14 -20 20 7
11 2 13 -8 3z"/>
<path d="M9544 866 c-11 -29 1 -51 26 -51 21 0 25 5 25 29 0 18 -6 31 -15 33
-12 4 -12 3 -2 -5 19 -13 11 -46 -12 -50 -16 -3 -18 1 -14 27 5 33 1 41 -8 17z"/>
<path d="M9620 866 c0 -8 9 -18 20 -21 27 -9 26 -29 -1 -22 -16 4 -19 3 -11
-5 12 -12 42 -4 42 11 0 6 -9 15 -20 21 -11 6 -18 15 -15 21 4 5 1 9 -4 9 -6
0 -11 -6 -11 -14z"/>
<path d="M9693 845 c0 -22 2 -30 4 -17 2 12 2 30 0 40 -3 9 -5 -1 -4 -23z"/>
<path d="M9731 867 c-1 -11 7 -21 19 -24 26 -7 26 -20 0 -26 -18 -4 -18 -5 2
-3 28 1 36 26 10 33 -12 3 -23 12 -25 22 -4 13 -5 13 -6 -2z"/>
<path d="M12005 860 c-11 -33 32 -68 49 -41 4 5 -3 7 -14 4 -24 -6 -37 21 -20
42 8 9 8 15 2 15 -6 0 -14 -9 -17 -20z"/>
<path d="M12045 870 c3 -5 8 -10 11 -10 2 0 4 5 4 10 0 6 -5 10 -11 10 -5 0
-7 -4 -4 -10z"/>
<path d="M12087 873 c-9 -9 12 -33 29 -33 8 0 14 -5 14 -11 0 -7 -11 -9 -26
-6 -16 3 -22 1 -16 -5 13 -13 44 -7 49 9 3 7 -7 17 -22 23 -14 5 -23 14 -20
20 7 11 2 13 -8 3z"/>
<path d="M12163 845 c0 -22 2 -30 4 -17 2 12 2 30 0 40 -3 9 -5 -1 -4 -23z"/>
<path d="M12190 865 c0 -8 2 -15 4 -15 2 0 6 7 10 15 3 8 1 15 -4 15 -6 0 -10
-7 -10 -15z"/>
<path d="M4484 843 c0 -10 -7 -19 -18 -21 -15 -3 -17 0 -12 14 6 15 4 16 -5 7
-16 -16 -2 -33 26 -31 19 2 25 8 25 25 0 13 -4 23 -9 23 -5 0 -8 -8 -7 -17z"/>
<path d="M7210 843 c19 -9 10 -25 -11 -20 -16 4 -19 3 -11 -5 13 -13 45 -2 40
14 -2 6 -10 13 -16 14 -7 1 -8 0 -2 -3z"/>
<path d="M12220 843 c19 -9 10 -25 -11 -20 -16 4 -19 3 -11 -5 13 -13 45 -2
40 14 -2 6 -10 13 -16 14 -7 1 -8 0 -2 -3z"/>
<path d="M907 423 c19 -4 23 -12 26 -56 l3 -52 2 52 c2 40 6 53 20 56 9 3 -3
5 -28 4 -25 0 -35 -2 -23 -4z"/>
<path d="M1169 415 c-9 -39 5 -90 26 -93 18 -2 18 -2 3 8 -20 13 -24 60 -5 60
8 0 9 3 1 8 -6 4 -13 14 -16 22 -3 11 -6 9 -9 -5z"/>
<path d="M1553 375 c-1 -33 1 -52 4 -42 6 21 11 21 37 0 18 -16 18 -15 -1 8
-20 22 -21 27 -8 42 8 9 10 12 3 7 -19 -16 -26 -12 -31 18 -2 15 -4 0 -4 -33z"/>
<path d="M984 386 c-16 -41 20 -86 48 -58 6 6 0 8 -16 5 -19 -4 -26 -1 -26 11
0 11 9 16 26 16 19 0 25 5 22 18 -4 22 -46 29 -54 8z m46 -6 c0 -5 -9 -10 -20
-10 -11 0 -20 5 -20 10 0 6 9 10 20 10 11 0 20 -4 20 -10z"/>
<path d="M1071 358 l2 -43 6 35 c4 26 11 35 26 35 15 0 22 -9 26 -35 5 -29 7
-31 8 -8 2 43 -9 58 -40 58 -28 0 -29 -2 -28 -42z"/>
<path d="M1230 389 c0 -5 5 -7 10 -4 6 3 10 8 10 11 0 2 -4 4 -10 4 -5 0 -10
-5 -10 -11z"/>
<path d="M1270 393 c17 -8 11 -23 -9 -23 -22 0 -45 -25 -36 -40 3 -5 20 -9 36
-8 28 2 30 5 27 37 -2 19 -9 36 -16 37 -7 1 -8 0 -2 -3z m10 -42 c0 -6 -5 -13
-10 -16 -15 -9 -43 3 -35 15 8 13 45 13 45 1z"/>
<path d="M1311 358 c1 -44 3 -43 13 5 10 43 44 37 49 -10 l4 -38 -1 40 c-1 38
-3 40 -33 43 -33 3 -33 3 -32 -40z"/>
<path d="M1417 393 c-24 -23 8 -81 38 -69 9 3 15 0 15 -10 0 -12 -7 -15 -30
-12 -19 3 -27 1 -21 -5 5 -5 19 -7 32 -5 21 3 24 9 27 56 3 51 3 52 -26 52
-16 0 -32 -3 -35 -7z m48 -33 c0 -16 -6 -26 -18 -28 -19 -4 -32 20 -23 44 9
25 41 13 41 -16z"/>
<path d="M1630 389 c0 -5 5 -7 10 -4 6 3 10 8 10 11 0 2 -4 4 -10 4 -5 0 -10
-5 -10 -11z"/>
<path d="M1670 393 c17 -8 11 -23 -9 -23 -22 0 -45 -25 -36 -40 3 -5 20 -9 36
-8 28 2 30 5 27 37 -2 19 -9 36 -16 37 -7 1 -8 0 -2 -3z m10 -42 c0 -6 -5 -13
-10 -16 -15 -9 -43 3 -35 15 8 13 45 13 45 1z"/>
<path d="M1722 358 l1 -43 4 38 c3 28 9 37 23 37 14 0 20 -9 23 -32 4 -33 4
-33 3 2 -1 30 -5 35 -28 38 -27 3 -28 2 -26 -40z"/>
<path d="M1802 394 c11 -3 18 -19 21 -42 l4 -37 -1 40 c-1 32 -5 40 -21 42
-15 1 -15 0 -3 -3z"/>
<path d="M1863 360 c0 -25 2 -35 4 -22 2 12 2 32 0 45 -2 12 -4 2 -4 -23z"/>
<path d="M489 173 c-11 -15 -11 -16 1 -5 21 18 67 15 79 -5 6 -10 11 -13 11
-7 1 34 -68 47 -91 17z"/>
<path d="M654 176 c-3 -8 -4 -31 -2 -52 2 -32 7 -40 26 -42 25 -4 52 13 52 32
0 6 -7 3 -15 -7 -22 -31 -50 -17 -53 26 -4 43 17 58 52 37 19 -12 20 -12 7 3
-16 21 -60 22 -67 3z"/>
<path d="M1022 170 c-7 -11 -8 -20 -3 -20 5 0 11 -14 13 -32 2 -17 9 -33 16
-34 7 -1 8 0 2 3 -15 7 -13 63 3 63 8 0 9 3 1 8 -6 4 -13 13 -15 20 -3 8 -8 5
-17 -8z"/>
<path d="M1402 135 c1 -33 3 -50 5 -37 5 27 15 28 38 2 10 -11 23 -20 28 -20
6 0 -2 13 -18 30 l-29 30 25 26 c23 25 23 26 2 15 -12 -6 -25 -17 -30 -23 -5
-9 -9 -5 -14 12 -5 16 -7 4 -7 -35z"/>
<path d="M1583 135 c0 -33 2 -45 4 -27 2 18 2 45 0 60 -2 15 -4 0 -4 -33z"/>
<path d="M2043 135 c-1 -33 1 -52 4 -42 6 21 11 21 37 0 18 -16 18 -15 -1 8
-20 22 -21 27 -8 42 8 9 10 12 3 7 -19 -16 -26 -12 -31 18 -2 15 -4 0 -4 -33z"/>
<path d="M2165 174 c-20 -16 -20 -16 2 -10 20 6 22 3 26 -41 l3 -48 2 58 c2
61 -2 65 -33 41z"/>
<path d="M2237 183 c-4 -3 -7 -11 -7 -17 0 -6 5 -5 12 2 7 7 18 12 25 12 22 0
15 -35 -12 -60 -34 -32 -31 -40 13 -39 35 1 35 2 8 8 -27 5 -28 7 -12 20 41
34 42 81 2 81 -13 0 -26 -3 -29 -7z"/>
<path d="M3478 179 c-10 -5 -18 -21 -18 -35 0 -21 9 -29 50 -46 35 -14 50 -26
48 -37 -4 -23 -68 -28 -80 -7 -5 9 -14 14 -19 10 -19 -11 23 -44 56 -44 36 0
71 31 61 55 -3 8 -26 24 -52 35 -33 14 -45 25 -42 37 4 24 45 28 69 7 17 -15
19 -15 19 -1 0 31 -57 47 -92 26z"/>
<path d="M3620 166 c0 -13 -6 -27 -12 -29 -10 -4 -10 -6 0 -6 7 -1 12 -17 12
-44 0 -24 5 -48 12 -55 15 -15 48 -16 48 -2 0 6 -9 10 -20 10 -17 0 -20 7 -20
44 0 38 3 45 23 49 l22 4 -22 2 c-17 1 -23 7 -23 26 0 14 -4 25 -10 25 -5 0
-10 -11 -10 -24z"/>
<path d="M3850 170 c0 -11 -7 -23 -15 -26 -14 -6 -14 -8 -1 -18 8 -6 16 -31
18 -56 3 -38 7 -45 26 -48 12 -2 22 1 22 7 0 6 -7 11 -15 11 -23 0 -21 87 3
93 16 4 16 5 0 6 -11 1 -18 9 -18 20 0 11 -4 23 -10 26 -5 3 -10 -3 -10 -15z"/>
<path d="M3930 180 c0 -5 5 -10 10 -10 6 0 10 5 10 10 0 6 -4 10 -10 10 -5 0
-10 -4 -10 -10z"/>
<path d="M4120 166 c0 -13 -6 -27 -12 -29 -10 -4 -10 -6 0 -6 7 -1 12 -17 12
-44 0 -24 5 -48 12 -55 15 -15 48 -16 48 -2 0 6 -9 10 -20 10 -17 0 -20 7 -20
44 0 38 3 45 23 49 l22 4 -22 2 c-17 1 -23 7 -23 26 0 14 -4 25 -10 25 -5 0
-10 -11 -10 -24z"/>
<path d="M4200 180 c0 -5 7 -10 15 -10 8 0 15 5 15 10 0 6 -7 10 -15 10 -8 0
-15 -4 -15 -10z"/>
<path d="M4260 105 c0 -50 4 -85 10 -85 6 0 10 11 10 25 0 14 4 25 8 25 5 0
19 -11 32 -25 13 -14 28 -25 34 -25 5 0 -5 16 -24 35 l-33 34 27 22 c36 29 25
37 -13 9 l-31 -21 0 45 c0 25 -4 46 -10 46 -6 0 -10 -35 -10 -85z"/>
<path d="M4430 185 c0 -28 53 -165 64 -165 11 0 66 138 66 163 0 24 -21 -11
-40 -68 -12 -36 -23 -65 -24 -65 -2 0 -13 28 -26 63 -21 59 -40 93 -40 72z"/>
<path d="M4710 105 c0 -50 4 -85 10 -85 6 0 10 11 10 25 0 14 4 25 8 25 5 0
19 -11 32 -25 13 -14 28 -25 34 -25 5 0 -5 16 -24 35 l-33 34 27 22 c36 29 25
37 -13 9 l-31 -21 0 45 c0 25 -4 46 -10 46 -6 0 -10 -35 -10 -85z"/>
<path d="M4950 180 c0 -5 7 -10 15 -10 8 0 15 5 15 10 0 6 -7 10 -15 10 -8 0
-15 -4 -15 -10z"/>
<path d="M5205 181 c-3 -5 7 -11 22 -13 27 -3 28 -5 31 -76 4 -93 22 -86 22 9
0 67 1 69 26 69 14 0 23 4 19 10 -8 13 -112 13 -120 1z"/>
<path d="M5900 160 c0 -27 -2 -29 -24 -20 -50 19 -86 -45 -56 -100 8 -15 20
-19 55 -18 l45 2 0 83 c0 49 -4 83 -10 83 -5 0 -10 -13 -10 -30z m-7 -51 c5
-9 7 -28 3 -43 -5 -22 -11 -27 -34 -24 -21 2 -28 9 -30 31 -2 16 -1 35 2 44 7
18 46 13 59 -8z"/>
<path d="M5950 180 c0 -5 7 -10 15 -10 8 0 15 5 15 10 0 6 -7 10 -15 10 -8 0
-15 -4 -15 -10z"/>
<path d="M756 151 c-3 -4 6 -6 19 -3 33 6 32 -14 -1 -22 -27 -7 -31 -40 -4
-42 10 -1 11 1 2 3 -17 6 -10 27 11 31 10 2 17 -5 20 -20 2 -13 5 -5 6 20 1
38 -1 42 -23 42 -14 0 -27 -4 -30 -9z"/>
<path d="M841 103 c1 -33 4 -49 7 -38 5 13 16 20 32 20 22 0 25 4 25 35 0 32
-3 35 -32 38 l-33 3 1 -58z m57 20 c-4 -34 -33 -43 -43 -14 -8 27 1 41 26 41
16 0 20 -6 17 -27z"/>
<path d="M936 152 c-7 -11 6 -27 27 -35 28 -10 21 -30 -9 -23 -17 5 -23 3 -19
-4 10 -16 52 -12 59 5 4 10 -3 20 -19 27 -30 13 -33 33 -5 25 11 -3 20 -1 20
4 0 11 -47 12 -54 1z"/>
<path d="M1087 154 c-14 -14 -7 -65 9 -71 26 -10 49 11 49 43 0 24 -5 30 -25
32 -14 2 -29 0 -33 -4z m48 -34 c0 -16 -6 -26 -18 -28 -19 -4 -32 20 -23 44 9
25 41 13 41 -16z"/>
<path d="M1171 118 c1 -44 3 -43 13 5 10 43 44 37 49 -10 l4 -38 -1 40 c-1 38
-3 40 -33 43 -33 3 -33 3 -32 -40z"/>
<path d="M1274 146 c-16 -41 20 -86 48 -58 6 6 0 8 -16 5 -19 -4 -26 -1 -26
11 0 11 9 16 26 16 19 0 25 5 22 18 -4 22 -46 29 -54 8z m46 -6 c0 -5 -9 -10
-20 -10 -11 0 -20 5 -20 10 0 6 9 10 20 10 11 0 20 -4 20 -10z"/>
<path d="M1497 153 c-4 -3 -7 -19 -7 -35 0 -33 21 -45 53 -30 21 10 20 10 -7
9 -16 -1 -31 4 -33 11 -3 8 6 12 27 12 25 0 31 3 26 16 -3 9 -6 18 -6 20 0 7
-46 5 -53 -3z m48 -13 c4 -6 -5 -10 -19 -10 -14 0 -26 5 -26 10 0 6 9 10 19
10 11 0 23 -4 26 -10z"/>
<path d="M1624 146 c-11 -28 1 -61 22 -64 28 -4 48 22 40 53 -5 18 -13 25 -32
25 -13 0 -27 -6 -30 -14z m50 -11 c8 -23 -4 -45 -25 -45 -14 0 -19 7 -19 30 0
23 5 30 19 30 10 0 21 -7 25 -15z"/>
<path d="M1712 118 c1 -38 2 -39 5 -10 5 36 30 53 44 31 8 -12 10 -12 18 0 14
22 39 5 44 -31 4 -28 4 -27 3 7 l-1 40 -57 3 -58 2 2 -42z"/>
<path d="M1851 103 c0 -48 2 -54 10 -34 5 14 7 31 5 38 -8 21 5 43 25 43 25 0
26 -45 2 -60 -16 -10 -16 -10 2 -8 16 3 20 11 20 38 0 32 -3 35 -32 38 l-33 3
1 -58z"/>
<path d="M1954 146 c-11 -28 1 -61 22 -64 28 -4 48 22 40 53 -5 18 -13 25 -32
25 -13 0 -27 -6 -30 -14z m50 -11 c8 -23 -4 -45 -25 -45 -14 0 -19 7 -19 30 0
23 5 30 19 30 10 0 21 -7 25 -15z"/>
<path d="M471 139 c-1 -8 6 -24 15 -35 15 -19 15 -19 6 1 -5 11 -12 27 -15 35
-5 13 -6 13 -6 -1z"/>
<path d="M3728 143 c-9 -2 -19 -11 -22 -19 -7 -17 -2 -18 23 -2 21 13 55 4 49
-14 -3 -7 -19 -16 -38 -19 -38 -8 -52 -26 -39 -51 7 -13 20 -17 54 -16 l45 2
0 48 c0 37 -5 50 -22 62 -12 9 -25 15 -28 15 -3 -1 -12 -3 -22 -6z m52 -78 c0
-22 -38 -39 -56 -24 -11 9 -12 15 -3 25 15 19 59 18 59 -1z"/>
<path d="M4001 133 c-28 -19 -13 -49 29 -58 32 -7 40 -29 14 -39 -8 -3 -24 -1
-34 4 -27 14 -34 12 -20 -5 16 -20 64 -19 81 1 18 22 1 46 -40 57 -41 10 -35
33 8 31 33 -2 34 10 2 19 -11 2 -29 -2 -40 -10z"/>
<path d="M4603 139 c-23 -8 -32 -29 -13 -29 6 0 10 5 10 10 0 16 47 12 54 -5
4 -10 -3 -17 -22 -21 -46 -10 -52 -13 -58 -29 -11 -26 15 -46 58 -43 l39 3 -3
54 c-3 59 -22 76 -65 60z m57 -68 c0 -9 -27 -41 -35 -41 -29 0 -47 34 -22 43
21 9 57 7 57 -2z"/>
<path d="M4852 139 c-37 -14 -27 -44 20 -63 40 -15 41 -17 25 -33 -15 -15 -20
-16 -38 -5 -12 8 -24 11 -27 7 -8 -8 18 -25 40 -25 31 0 48 12 48 36 0 18 -7
25 -32 32 -20 5 -34 16 -37 27 -3 15 2 17 33 12 20 -3 34 -2 31 2 -8 14 -39
19 -63 10z"/>
<path d="M5055 140 c-11 -4 -23 -6 -27 -3 -5 2 -7 -24 -7 -59 l2 -63 6 47 c8
54 20 72 47 66 15 -2 20 -14 22 -56 4 -65 22 -69 22 -4 0 65 -21 88 -65 72z"/>
<path d="M5358 143 c-25 -6 -41 -60 -25 -92 15 -32 66 -41 88 -15 15 19 15 19
-35 -2 -16 -6 -49 23 -41 37 4 5 24 9 46 9 31 0 39 4 39 19 0 29 -37 51 -72
44z m50 -35 c3 -15 -4 -18 -32 -18 -38 0 -44 8 -24 28 17 17 52 11 56 -10z"/>
<path d="M5571 139 c-33 -13 -23 -41 23 -62 36 -17 38 -20 22 -35 -14 -14 -20
-15 -37 -4 -12 8 -24 11 -27 7 -10 -10 20 -25 50 -25 28 0 49 24 41 47 -2 7
-20 17 -39 23 -48 16 -47 45 1 37 20 -3 33 -2 30 2 -8 14 -39 19 -64 10z"/>
<path d="M5703 139 c-49 -18 -33 -119 20 -119 28 0 72 29 45 30 -9 0 -20 -5
-23 -10 -9 -14 -21 -12 -39 6 -23 22 -11 34 35 34 41 0 50 13 27 42 -18 21
-39 27 -65 17z m55 -31 c3 -15 -4 -18 -32 -18 -38 0 -44 8 -24 28 17 17 52 11
56 -10z"/>
<path d="M6038 143 c-9 -2 -19 -11 -22 -19 -7 -17 -2 -18 23 -2 21 13 55 4 49
-14 -3 -7 -19 -16 -38 -19 -38 -8 -52 -26 -39 -51 7 -13 20 -17 54 -16 l45 2
0 48 c0 37 -5 50 -22 62 -12 9 -25 15 -28 15 -3 -1 -12 -3 -22 -6z m52 -78 c0
-22 -38 -39 -56 -24 -11 9 -12 15 -3 25 15 19 59 18 59 -1z"/>
<path d="M3930 80 c0 -33 4 -60 10 -60 6 0 10 27 10 60 0 33 -4 60 -10 60 -6
0 -10 -27 -10 -60z"/>
<path d="M4213 80 c0 -36 2 -50 4 -32 2 17 2 47 0 65 -2 17 -4 3 -4 -33z"/>
<path d="M4963 80 c0 -36 2 -50 4 -32 2 17 2 47 0 65 -2 17 -4 3 -4 -33z"/>
<path d="M5471 75 c1 -33 4 -47 6 -30 7 60 14 76 36 85 19 8 18 9 -10 7 l-33
-1 1 -61z"/>
<path d="M5963 80 c0 -36 2 -50 4 -32 2 17 2 47 0 65 -2 17 -4 3 -4 -33z"/>
<path d="M518 113 c6 -2 18 -2 25 0 6 3 1 5 -13 5 -14 0 -19 -2 -12 -5z"/>
<path d="M566 103 c-6 -14 -5 -15 5 -6 7 7 10 15 7 18 -3 3 -9 -2 -12 -12z"/>
<path d="M13555 100 c17 -19 19 -19 37 -4 24 23 24 24 -19 24 -36 0 -36 0 -18
-20z"/>
<path d="M518 83 c6 -2 18 -2 25 0 6 3 1 5 -13 5 -14 0 -19 -2 -12 -5z"/>
<path d="M3412 3 c1880 -2 4956 -2 6835 0 1880 1 342 2 -3417 2 -3759 0 -5297
-1 -3418 -2z"/>
</g>
</svg>
